<svg width="204" height="60" viewBox="0 0 204 60" fill="none" xmlns="http://www.w3.org/2000/svg">
<path d="M11.7569 52.4907C12.0254 52.4893 12.294 52.4874 12.5625 52.485C12.9441 52.4817 13.3256 52.4806 13.7072 52.4801C13.8224 52.4788 13.9377 52.4774 14.0565 52.476C14.6965 52.478 15.1536 52.5038 15.63 52.9523C15.7094 53.469 15.7142 53.8247 15.3837 54.2548C14.7669 54.6713 14.1762 54.7304 13.4341 54.728C13.3445 54.7286 13.2549 54.7291 13.1626 54.7297C12.8681 54.7312 12.5737 54.7311 12.2792 54.7309C12.0737 54.7313 11.8682 54.7318 11.6627 54.7323C11.2327 54.7331 10.8028 54.7331 10.3729 54.7325C9.82228 54.7319 9.27174 54.7337 8.72117 54.7362C8.29709 54.7378 7.87302 54.7379 7.44894 54.7376C7.24594 54.7377 7.04294 54.7382 6.83994 54.7393C6.55614 54.7407 6.27244 54.7399 5.98865 54.7387C5.90512 54.7395 5.8216 54.7403 5.73554 54.7412C5.10365 54.735 4.74193 54.5805 4.28588 54.1798C4.08233 53.7966 4.13396 53.5731 4.2714 53.1706C5.84202 51.8812 9.80772 52.4994 11.7569 52.4907Z" fill="white"/>
<path d="M4.61914 49.3518C4.96464 49.3146 4.96464 49.3146 5.40239 49.3198C5.47924 49.3203 5.55609 49.3208 5.63527 49.3212C5.88096 49.3231 6.12653 49.3272 6.37218 49.3313C6.53864 49.333 6.70511 49.3345 6.87157 49.3358C7.27983 49.3394 7.68803 49.3451 8.09626 49.3518C8.22212 50.084 8.22212 50.084 8.13248 50.3679C7.94439 50.5955 7.80074 50.6621 7.51674 50.7702C7.05199 50.8189 6.58598 50.8106 6.11864 50.8111C5.99098 50.8138 5.86331 50.8164 5.73177 50.8192C5.60948 50.8196 5.48719 50.82 5.36119 50.8205C5.24943 50.8214 5.13766 50.8223 5.02251 50.8232C4.73504 50.7702 4.73504 50.7702 4.52431 50.5697C4.3409 50.2538 4.34722 50.034 4.38733 49.6791C4.46382 49.5711 4.54032 49.4631 4.61914 49.3518Z" fill="white"/>
<path d="M50.1693 46.7333C47.5759 48.5414 44.788 50.122 41.9329 51.534C41.8172 51.5917 41.7015 51.6493 41.5823 51.7086C40.8658 52.0575 40.1416 52.3498 39.385 52.6133C39.0563 52.7293 38.7345 52.8554 38.4123 52.9865C38.1592 53.0853 37.9056 53.1829 37.6516 53.2798C37.5729 53.31 37.4942 53.3402 37.4131 53.3713C34.69 54.4002 31.7677 55.1383 28.8647 55.5437C28.6712 55.5714 28.6712 55.5714 28.4739 55.5997C27.2738 55.7465 26.468 55.5652 25.4672 54.9368C25.3903 54.8903 25.3133 54.8439 25.2341 54.796C24.726 54.4866 24.2333 54.1591 23.7432 53.8253C23.7814 53.6813 23.8197 53.5373 23.8591 53.3889C24.6856 53.3746 25.4984 53.407 26.322 53.4741C27.485 53.538 28.6005 53.4585 29.7557 53.3207C29.9009 53.3053 30.0461 53.29 30.1958 53.2742C32.3276 53.0218 34.3508 52.3366 36.3622 51.65C36.5721 51.5789 36.782 51.5077 36.9918 51.4366C39.9843 50.4189 42.976 49.3767 45.8808 48.1517C46.0633 48.075 46.2457 47.9983 46.4282 47.9216C46.5629 47.8649 46.5629 47.8649 46.7003 47.8071C47.4432 47.4949 48.1865 47.184 48.9378 46.8902C49.075 46.836 49.2121 46.7819 49.3534 46.7261C49.6988 46.6262 49.8411 46.6062 50.1693 46.7333Z" fill="white"/>
<path d="M2.58356 45.7105C3.03606 46.1053 3.20262 46.4311 3.27899 47.0062C3.20354 47.5744 2.88412 48.0067 2.41695 48.37C1.98509 48.5055 1.59058 48.5375 1.14201 48.4791C0.696559 48.2576 0.336335 48.0298 0.0988705 47.6063C-0.0671154 46.9813 -0.0405855 46.6059 0.305325 46.046C0.842989 45.3403 1.81267 45.3675 2.58356 45.7105Z" fill="white"/>
<path d="M71.742 44.217C71.9594 44.442 71.9594 44.442 71.9933 44.6947C71.8686 45.7706 70.6139 46.8161 69.8731 47.6061C69.783 47.7032 69.6929 47.8002 69.6001 47.9002C68.7215 48.8342 67.8143 49.7058 66.765 50.4702C66.4904 50.6695 66.4904 50.6695 66.1931 50.968C65.51 51.5932 64.7348 51.6075 63.8316 51.684C62.7799 51.7855 61.8803 51.9104 60.9485 52.4068C61.0692 52.3753 61.1899 52.3438 61.3143 52.3114C62.4908 52.0194 63.5592 51.915 64.7733 51.9704C64.6745 52.4316 64.4394 52.6447 64.0779 52.9524C64.0048 53.0178 63.9318 53.0832 63.8565 53.1505C63.2778 53.6558 62.6682 54.0726 62.0057 54.4752C61.6569 54.6901 61.3219 54.9176 60.9847 55.1481C59.058 56.4084 56.7475 57.7333 54.4579 58.2986C54.1984 58.2509 54.1984 58.2509 53.9942 58.1895C54.8378 57.2167 55.8586 56.4685 56.8918 55.68C56.4573 55.8656 56.0763 56.1159 55.6893 56.3756C55.6185 56.4229 55.5476 56.4702 55.4746 56.5189C54.8788 56.9238 54.3242 57.3658 53.7897 57.8404C52.8428 58.6463 51.6258 58.9506 50.4157 59.2465C50.2904 59.2786 50.165 59.3108 50.0358 59.3439C48.7335 59.669 47.4624 59.8719 46.1128 59.8261C46.1128 59.7541 46.1128 59.6821 46.1128 59.6079C46.3174 59.4702 46.3174 59.4702 46.6054 59.3147C46.7109 59.2569 46.8165 59.1992 46.9253 59.1397C47.0397 59.0782 47.154 59.0167 47.2718 58.9533C47.5069 58.8249 47.7419 58.6963 47.9767 58.5675C48.0934 58.5037 48.21 58.4398 48.3302 58.374C48.7824 58.1231 49.2266 57.8613 49.6696 57.5962C50.1468 57.311 50.6219 57.041 51.1256 56.7984C52.6009 56.0608 53.9962 55.0589 55.2692 54.0434C53.8017 54.6406 52.4382 55.3628 51.0805 56.1531C50.941 56.2342 50.8015 56.3154 50.662 56.3965C50.5927 56.4368 50.5234 56.4771 50.452 56.5186C49.969 56.7983 49.4811 57.0687 48.9886 57.3333C48.9212 57.3695 48.8538 57.4058 48.7843 57.4431C48.4658 57.614 48.1467 57.7837 47.8268 57.9524C46.8959 58.4496 46.0117 59.0011 45.2 59.6603C44.6006 59.9347 43.987 59.8756 43.3311 59.8602C43.1963 59.8592 43.0615 59.8581 42.9227 59.857C42.3108 59.8494 41.7318 59.822 41.1289 59.717C41.4449 59.3732 41.8464 59.1709 42.259 58.9464C42.9589 58.5588 43.6397 58.1512 44.3116 57.7219C45.3947 57.0312 46.5054 56.393 47.6413 55.7823C47.9089 55.6378 48.1764 55.4931 48.444 55.3485C48.5112 55.3122 48.5783 55.2759 48.6475 55.2385C49.3066 54.8821 49.9626 54.5209 50.6185 54.1594C51.6302 53.6029 52.6442 53.0503 53.661 52.5023C53.7289 52.4657 53.7969 52.4291 53.8669 52.3913C54.9156 51.8268 55.9715 51.2757 57.0368 50.7393C57.1336 50.6903 57.2304 50.6413 57.3301 50.5908C57.4138 50.5488 57.4976 50.5067 57.5839 50.4634C57.832 50.3267 58.056 50.1727 58.2827 50.0065C56.0967 50.7903 54.0448 51.6534 52.078 52.848C51.2604 53.3362 50.3994 53.7425 49.538 54.1572C48.7509 54.5374 47.9783 54.9338 47.2139 55.3527C46.3268 55.8388 45.4256 56.2903 44.5118 56.7302C43.453 57.241 42.4401 57.7894 41.4419 58.3979C40.9237 58.7106 40.3945 59.0035 39.8539 59.2806C39.7752 59.3212 39.6965 59.3619 39.6153 59.4038C38.1548 60.0412 35.8113 59.2578 34.3752 58.8037C33.3907 58.4593 33.3907 58.4593 33.2474 58.1895C33.7088 58.0776 34.168 57.9697 34.636 57.8852C37.792 57.3049 41.331 55.8637 43.9106 54.0434C43.9106 53.9714 43.9106 53.8994 43.9106 53.8252C43.3254 53.8846 42.867 54.0744 42.3531 54.3298C42.1866 54.4101 42.02 54.4902 41.8533 54.5702C41.7701 54.6104 41.6869 54.6505 41.6011 54.6919C33.8787 58.3951 33.8787 58.3951 31.4296 57.7497C31.2839 57.6979 31.1389 57.6444 30.9945 57.5894C30.9167 57.5609 30.8389 57.5324 30.7587 57.5031C29.8298 57.1556 28.9297 56.7469 28.0317 56.3347C28.0317 56.2267 28.0317 56.1187 28.0317 56.0074C28.1789 56.0107 28.3261 56.0141 28.4777 56.0176C29.0926 56.0167 29.6794 55.941 30.2846 55.8437C30.4022 55.8248 30.5197 55.8059 30.6409 55.7865C33.234 55.3519 35.8103 54.8191 38.2313 53.8252C38.3545 53.7757 38.4777 53.7261 38.6046 53.675C40.8158 52.7839 42.8984 51.8146 44.9216 50.5925C50.6508 47.1345 56.5265 44.2038 63.3426 43.2792C63.5884 43.2454 63.833 43.2076 64.0779 43.1681C66.61 42.7905 69.5018 42.9095 71.742 44.217ZM60.5645 46.5423C60.4712 46.5639 60.3779 46.5855 60.2817 46.6077C58.8171 46.9474 57.3738 47.3126 55.9646 47.8243C55.8039 47.8827 55.8039 47.8827 55.64 47.9422C53.4094 48.764 51.2433 49.7371 49.177 50.8789C48.6013 51.1948 48.0171 51.4958 47.4328 51.7972C47.1849 51.9259 46.9385 52.057 46.6923 52.1886C46.6037 52.2344 46.515 52.2802 46.4237 52.3274C46.3387 52.3734 46.2537 52.4195 46.1662 52.4669C46.0892 52.5078 46.0121 52.5486 45.9327 52.5907C45.8774 52.638 45.8221 52.6854 45.7651 52.7342C45.7651 52.8782 45.7651 53.0222 45.7651 53.1706C46.2903 53.1133 46.6373 52.9915 47.0835 52.7273C47.6042 52.4308 48.1303 52.1599 48.6771 51.909C49.5279 51.5172 50.3589 51.0941 51.1908 50.6679C56.4989 47.9669 62.1415 46.6251 68.1345 46.0786C68.1345 46.0066 68.1345 45.9346 68.1345 45.8604C67.4632 45.7532 66.8083 45.7277 66.1279 45.724C66.0275 45.7218 65.927 45.7195 65.8235 45.7172C64.0444 45.7076 62.2814 46.1431 60.5645 46.5423Z" fill="white"/>
<path d="M1.60571 35.6045C1.68221 35.6045 1.75871 35.6045 1.83752 35.6045C1.89938 35.7115 1.96123 35.8186 2.02496 35.9288C3.34188 38.1849 4.92247 40.1866 6.82139 42.0418C6.89869 42.1175 6.97599 42.1933 7.05564 42.2713C8.11131 43.3 9.15851 44.2844 10.4144 45.0968C10.4834 45.1423 10.5523 45.1879 10.6233 45.2348C16.6747 49.2026 23.6941 50.4212 30.9359 49.297C34.6953 48.6369 38.2487 47.2393 41.7085 45.7515C41.8443 45.6932 41.9801 45.635 42.1201 45.575C44.9674 44.3505 47.787 43.0593 50.5462 41.6668C52.6593 40.6056 54.8583 39.7171 57.1237 38.9868C57.2635 38.9417 57.4032 38.8965 57.5472 38.85C58.6099 38.5167 59.6698 38.2947 60.7749 38.1264C61.0372 38.0864 61.2992 38.0445 61.5611 38.0023C66.706 37.186 71.8171 37.862 76.1261 40.743C76.9056 41.278 77.6351 41.8517 78.3342 42.4782C78.4361 42.562 78.4361 42.562 78.5402 42.6474C80.6606 44.4651 81.9277 47.4016 82.073 50.0463C82.1107 51.0878 82.0058 51.9771 81.5795 52.9525C81.5389 53.0486 81.4982 53.1446 81.4563 53.2436C80.6656 54.9106 79.0324 55.983 77.291 56.6622C76.8653 56.7818 76.4584 56.8463 76.0161 56.8804C75.9181 56.8892 75.8201 56.8981 75.7191 56.9072C73.9538 56.9888 72.4326 56.3778 71.1192 55.312C70.1554 54.4617 69.472 53.556 69.3951 52.2749C69.358 50.8553 69.8498 49.4981 70.9045 48.4527C71.6633 47.8553 72.5092 47.4957 73.5061 47.5577C74.626 47.7344 75.5047 48.2694 76.1841 49.1278C76.5209 49.6774 76.6307 50.2583 76.4797 50.8795C76.1179 51.5195 75.5951 52.0593 74.8571 52.2979C74.0918 52.4856 73.3945 52.6255 72.6549 52.2979C71.989 51.8621 71.5784 51.4087 71.3799 50.6613C71.3034 50.6253 71.2269 50.5893 71.1481 50.5522C71.1387 50.8636 71.1318 51.1749 71.1264 51.4864C71.1235 51.5737 71.1206 51.6609 71.1176 51.7509C71.105 52.7153 71.4819 53.4551 72.1913 54.1527C73.0708 54.8297 74.1921 55.1656 75.3275 55.1206C76.505 54.9499 77.4837 54.4449 78.2092 53.5509C79.0915 52.3222 79.203 51.1016 78.9209 49.652C78.6014 48.4673 77.8798 47.3157 76.9682 46.4479C76.8274 46.297 76.8274 46.297 76.8274 46.0788C76.7199 46.0383 76.7199 46.0383 76.6101 45.9969C76.317 45.8347 76.2805 45.7038 76.132 45.4241C75.979 45.3485 75.8243 45.2761 75.6684 45.2059C75.5386 45.1216 75.4111 45.0343 75.2858 44.9442C73.0445 43.3719 70.5944 42.1358 67.7869 41.8236C67.6781 41.8115 67.5694 41.7994 67.4573 41.7869C66.4862 41.696 65.5161 41.6964 64.5416 41.7145C64.4643 41.7153 64.387 41.7161 64.3074 41.7169C63.1332 41.7327 61.996 41.878 60.8399 42.0691C60.7118 42.0901 60.5836 42.1111 60.4516 42.1327C58.5251 42.4671 56.7003 42.9862 54.8765 43.6537C54.5669 43.767 54.2566 43.8785 53.9461 43.9898C52.7074 44.4365 51.4918 44.9202 50.2837 45.4356C43.957 48.1198 37.1313 50.9936 30.234 51.9706C30.0673 51.995 30.0673 51.995 29.8973 52.02C23.7889 52.8997 17.463 51.7763 12.153 48.8065C12.0774 48.7652 12.0019 48.7239 11.9241 48.6813C10.2708 47.7753 8.83047 46.6415 7.424 45.4254C7.16201 45.1998 6.89421 44.9815 6.62581 44.7627C6.14381 44.358 5.72329 43.9304 5.31464 43.4602C5.21798 43.3515 5.12131 43.2428 5.02171 43.1308C3.15344 40.9923 1.7493 38.4159 1.60571 35.6045Z" fill="white"/>
<path d="M2.88057 24.9119C3.06048 25.2947 3.15032 25.6259 3.1907 26.0421C3.20261 26.1539 3.21451 26.2657 3.22678 26.3808C3.23923 26.4992 3.25168 26.6175 3.2645 26.7394C3.38964 27.8009 3.57788 28.7818 3.94849 29.7901C4.05309 30.0768 4.15169 30.3651 4.25059 30.6536C4.95589 32.6762 5.87167 34.2738 7.28492 35.9317C7.33983 35.9962 7.39474 36.0606 7.45131 36.127C8.54222 37.3963 9.73675 38.5295 11.1098 39.5322C11.1786 39.583 11.2475 39.6338 11.3185 39.6861C15.3807 42.6705 20.0763 43.943 25.2138 43.9511C25.3094 43.9515 25.4049 43.952 25.5033 43.9525C27.686 43.9571 29.7438 43.5877 31.8493 43.0714C31.9463 43.0478 32.0433 43.0243 32.1432 43C35.5027 42.1803 38.6165 40.9535 41.7152 39.4947C42.0401 39.342 42.3657 39.1908 42.6913 39.0395C43.9768 38.4381 45.2164 37.7898 46.4386 37.0811C46.9284 36.7982 47.4312 36.5516 47.9496 36.3182C48.3309 36.1426 48.7038 35.9553 49.0778 35.7663C50.0445 35.2784 51.0222 34.8323 52.0263 34.4166C52.5263 34.2094 53.0131 33.9935 53.4944 33.7495C58.9762 31.1295 65.7446 30.2939 71.6393 32.0695C72.1809 32.2444 72.7093 32.4436 73.2343 32.6585C73.3098 32.6892 73.3853 32.7199 73.4631 32.7515C75.6047 33.6451 77.6513 34.8808 79.3772 36.3681C79.5059 36.4659 79.6347 36.5633 79.7639 36.6605C79.9167 36.7858 79.9167 36.7858 80.0727 36.9136C80.0727 36.9857 80.0727 37.0577 80.0727 37.1319C80.2256 37.2039 80.3786 37.2759 80.5363 37.3501C80.5363 37.4221 80.5363 37.4941 80.5363 37.5683C80.6893 37.6403 80.8423 37.7123 80.9999 37.7865C80.9999 37.8585 80.9999 37.9305 80.9999 38.0047C81.0764 38.0047 81.1529 38.0047 81.2317 38.0047C81.3922 38.1873 81.3922 38.1873 81.5767 38.4446C81.6445 38.539 81.7122 38.6334 81.782 38.7307C81.8897 38.8844 81.8897 38.8844 81.9996 39.0412C82.0728 39.1455 82.146 39.2498 82.2214 39.3573C83.4546 41.141 84.345 42.9583 84.5929 45.0967C84.603 45.1777 84.613 45.2587 84.6234 45.3422C84.7005 45.9987 84.7271 46.6458 84.7233 47.3061C84.7229 47.4055 84.7225 47.5049 84.7221 47.6073C84.7132 48.7142 84.7014 49.8114 84.3611 50.8794C84.2846 50.8794 84.2081 50.8794 84.1293 50.8794C84.1071 50.8057 84.085 50.7321 84.0622 50.6563C83.9596 50.3168 83.8561 49.9775 83.7526 49.6383C83.7178 49.5225 83.683 49.4068 83.6471 49.2875C83.3362 48.2724 82.978 47.3233 82.4052 46.4128C82.1188 45.9532 81.8384 45.492 81.5722 45.0217C79.3419 41.1764 75.5797 38.2555 71.148 36.9136C69.069 36.3562 66.9874 36.106 64.8313 36.1158C64.6948 36.1161 64.6948 36.1161 64.5556 36.1164C63.0233 36.122 61.5292 36.2038 60.0213 36.4772C59.9234 36.4948 59.8256 36.5123 59.7249 36.5304C55.6799 37.2876 51.928 38.9126 48.3149 40.7324C48.1424 40.8181 47.9698 40.9036 47.797 40.989C46.5385 41.6123 45.2928 42.2606 44.0772 42.9555C39.3272 45.5708 34.0177 47.2074 28.6113 48.0426C28.5198 48.0571 28.4283 48.0715 28.334 48.0865C25.4278 48.5352 22.42 48.2348 19.5707 47.6061C19.437 47.5768 19.437 47.5768 19.3005 47.547C15.3814 46.665 12.0232 44.5006 9.02348 42.0417C8.87669 41.9237 8.87669 41.9237 8.72693 41.8034C8.15405 41.3369 7.65233 40.8443 7.16902 40.296C7.05562 40.1728 7.05562 40.1728 6.93993 40.0471C3.95299 36.7343 2.05168 32.9328 2.04026 28.5601C2.04003 28.4883 2.0398 28.4165 2.03956 28.3425C2.03867 27.2106 2.09933 26.1163 2.41695 25.021C2.53286 24.9119 2.53286 24.9119 2.88057 24.9119Z" fill="white"/>
<path d="M4.15694 18.4302C4.33685 18.813 4.42669 19.1442 4.46707 19.5605C4.47898 19.6722 4.49088 19.784 4.50315 19.8991C4.5156 20.0175 4.52804 20.1358 4.54087 20.2577C4.666 21.3192 4.85425 22.3001 5.22486 23.3085C5.32945 23.5952 5.42806 23.8835 5.52696 24.1719C6.23225 26.1945 7.14803 27.7921 8.56129 29.45C8.6162 29.5145 8.6711 29.5789 8.72767 29.6454C9.81859 30.9146 11.0131 32.0478 12.3861 33.0505C12.455 33.1013 12.5239 33.1521 12.5949 33.2044C16.6571 36.1888 21.3527 37.4613 26.4902 37.4694C26.5857 37.4699 26.6813 37.4703 26.7797 37.4708C28.9623 37.4754 31.0201 37.1061 33.1257 36.5897C33.2227 36.5661 33.3197 36.5426 33.4196 36.5183C36.7791 35.6986 39.8928 34.4718 42.9915 33.013C43.3164 32.8603 43.642 32.7091 43.9677 32.5578C45.2531 31.9564 46.4927 31.3081 47.7149 30.5994C48.2048 30.3165 48.7075 30.07 49.2259 29.8366C49.6072 29.6609 49.9802 29.4736 50.3541 29.2846C51.3209 28.7967 52.2986 28.3506 53.3026 27.9349C53.8027 27.7277 54.2894 27.5118 54.7708 27.2679C60.2525 24.6478 67.021 23.8122 72.9156 25.5878C73.4572 25.7627 73.9857 25.9619 74.5107 26.1768C74.5862 26.2075 74.6617 26.2382 74.7394 26.2699C76.8811 27.1634 78.9277 28.3992 80.6536 29.8864C80.7822 29.9842 80.9111 30.0816 81.0402 30.1788C81.1931 30.3041 81.1931 30.3041 81.349 30.432C81.349 30.504 81.349 30.576 81.349 30.6502C81.502 30.7222 81.655 30.7942 81.8126 30.8684C81.8126 30.9404 81.8126 31.0124 81.8126 31.0866C81.9656 31.1586 82.1186 31.2306 82.2762 31.3048C82.2762 31.3768 82.2762 31.4488 82.2762 31.523C82.3527 31.523 82.4292 31.523 82.5081 31.523C82.6686 31.7057 82.6686 31.7057 82.853 31.9629C82.9208 32.0573 82.9886 32.1517 83.0584 32.249C83.1661 32.4027 83.1661 32.4027 83.2759 32.5595C83.3491 32.6639 83.4223 32.7682 83.4977 32.8756C84.7309 34.6593 85.6214 36.4766 85.8693 38.615C85.8793 38.696 85.8894 38.777 85.8998 38.8605C85.9769 39.5171 86.0035 40.1641 85.9997 40.8244C85.9993 40.9238 85.9989 41.0232 85.9985 41.1256C85.9896 42.2325 85.9778 43.3297 85.6375 44.3977C85.561 44.3977 85.4845 44.3977 85.4057 44.3977C85.3835 44.3241 85.3614 44.2504 85.3385 44.1746C85.236 43.8351 85.1325 43.4958 85.029 43.1566C84.9942 43.0408 84.9593 42.9251 84.9235 42.8058C84.6126 41.7907 84.2543 40.8416 83.6816 39.9311C83.3952 39.4715 83.1148 39.0103 82.8485 38.54C80.6183 34.6947 76.8561 31.7738 72.4244 30.432C70.3454 29.8745 68.2637 29.6243 66.1076 29.6341C65.9712 29.6344 65.9712 29.6344 65.832 29.6347C64.2997 29.6403 62.8056 29.7222 61.2976 29.9955C61.1998 30.0131 61.102 30.0307 61.0012 30.0487C56.9563 30.8059 53.2044 32.431 49.5913 34.2507C49.4188 34.3364 49.2461 34.4219 49.0734 34.5073C47.8149 35.1306 46.5691 35.7789 45.3536 36.4738C40.6036 39.0891 35.2941 40.7257 29.8876 41.5609C29.7961 41.5754 29.7046 41.5899 29.6104 41.6048C26.7042 42.0535 23.6963 41.7531 20.8471 41.1245C20.7133 41.0952 20.7133 41.0952 20.5769 41.0653C16.6578 40.1833 13.2995 38.0189 10.2998 35.56C10.1531 35.4421 10.1531 35.4421 10.0033 35.3217C9.43041 34.8552 8.9287 34.3626 8.44538 33.8143C8.33198 33.6911 8.33198 33.6911 8.21629 33.5654C5.22935 30.2526 3.32804 26.4511 3.31663 22.0784C3.3164 22.0066 3.31617 21.9348 3.31593 21.8608C3.31503 20.7289 3.3757 19.6346 3.69332 18.5393C3.80922 18.4302 3.80922 18.4302 4.15694 18.4302Z" fill="white"/>
<path d="M83.4339 20.4385C83.942 20.6777 84.2604 20.922 84.477 21.4205C84.5605 22.1168 84.459 22.4942 84.0134 23.0571C83.5117 23.3824 83.1093 23.4541 82.5067 23.3844C82.0889 23.2336 81.7695 23.0269 81.4708 22.7093C81.2948 22.2708 81.2696 21.8832 81.3476 21.4205C81.8045 20.5604 82.4486 20.2913 83.4339 20.4385Z" fill="white"/>
<path d="M78.8629 20.4114C79.3675 20.8498 79.3675 20.8498 79.4931 21.0933C79.4931 21.5665 79.4615 21.7777 79.102 22.1162C78.591 22.4139 78.113 22.4747 77.5228 22.4026C77.0776 22.2586 76.7124 22.0658 76.3637 21.7684C76.1913 21.4133 76.1967 21.1509 76.2478 20.766C76.849 20.0244 78.0258 20.0243 78.8629 20.4114Z" fill="white"/>
<path d="M76.6751 16.2515C77.0663 16.2541 77.2714 16.3169 77.5734 16.5515C77.8936 16.8603 77.973 16.9438 78.0225 17.363C77.978 17.7905 77.8365 17.9522 77.5227 18.2563C77.1186 18.4465 76.6886 18.4277 76.2477 18.3654C75.8928 18.1404 75.8928 18.1404 75.6682 17.8199C75.5833 17.3316 75.6302 17.1184 75.8928 16.6879C76.2207 16.295 76.2207 16.295 76.6751 16.2515Z" fill="white"/>
<path d="M81.3477 15.8559C81.6887 15.9978 81.7918 16.1175 82.0431 16.4014C82.1649 16.7017 82.2002 16.9551 82.159 17.2743C81.9309 17.6884 81.7599 17.8885 81.3477 18.1472C80.9865 18.2203 80.6656 18.2223 80.3046 18.1472C79.9831 17.9393 79.7878 17.7084 79.6091 17.3834C79.5174 16.8913 79.5686 16.6884 79.8265 16.2514C80.2479 15.7614 80.7106 15.7694 81.3477 15.8559Z" fill="white"/>
<path d="M43.5919 0.00141429C43.732 0.00075336 43.732 0.00075336 43.875 7.90823e-05C45.8125 -0.00419191 47.6646 0.164081 49.5465 0.615142C49.6919 0.649257 49.8374 0.683372 49.9872 0.718522C52.4968 1.31478 54.9157 2.12436 57.2396 3.19962C57.3682 3.25742 57.4969 3.31523 57.6294 3.37478C59.4868 4.22381 61.2485 5.22218 62.9189 6.36372C62.9855 6.40912 63.0521 6.45451 63.1207 6.50128C64.5548 7.48786 65.8091 8.64 67.0697 9.81423C67.1633 9.90094 67.257 9.98765 67.3534 10.077C67.483 10.1988 67.483 10.1988 67.6153 10.3231C67.6931 10.3959 67.7709 10.4687 67.8511 10.5437C68.0187 10.728 68.0187 10.728 68.0187 10.9462C68.0952 10.9462 68.1717 10.9462 68.2505 10.9462C69.2182 11.9234 70.028 13.0539 70.8004 14.1717C70.8465 14.2381 70.8927 14.3044 70.9403 14.3728C71.264 14.8479 71.264 14.8479 71.264 15.0923C71.3405 15.0923 71.417 15.0923 71.4958 15.0923C71.6913 15.3687 71.871 15.6436 72.0463 15.9311C72.1245 16.0583 72.1245 16.0583 72.2042 16.188C73.4804 18.2915 74.1578 20.4942 74.7411 22.8389C74.7628 22.9243 74.7846 23.0097 74.807 23.0976C75.1307 24.3725 75.1307 24.3725 74.9729 24.8028C74.528 24.6755 74.1045 24.5179 73.6785 24.3438C72.236 23.7542 70.8299 23.2654 69.2936 22.948C69.1454 22.9159 68.9972 22.8839 68.8445 22.8508C62.9351 21.6487 56.9286 22.9027 51.5603 25.3484C51.4776 25.3859 51.3949 25.4235 51.3098 25.4622C50.8439 25.675 50.3814 25.8933 49.9211 26.1167C49.714 26.2173 49.5062 26.3167 49.2984 26.416C47.6104 27.2402 45.9797 28.1807 44.4032 29.1807C44.3351 29.2239 44.267 29.267 44.1968 29.3115C44.1284 29.3548 44.0599 29.3982 43.9894 29.4429C43.8473 29.5328 43.7051 29.6228 43.5629 29.7126C43.4862 29.7612 43.4094 29.8097 43.3303 29.8597C37.2968 33.6431 30.0169 36.2166 22.7234 34.8817C19.6729 34.2967 14.9974 33.3403 12.9883 30.8762C12.3372 29.9299 12.2328 28.9935 12.234 27.8855C12.2335 27.7753 12.233 27.6651 12.2325 27.5516C12.2318 27.3191 12.2317 27.0867 12.2322 26.8543C12.2326 26.5052 12.2299 26.1562 12.227 25.8072C12.2224 24.4547 12.3194 23.1802 12.6165 21.8569C12.6432 21.7347 12.6698 21.6125 12.6972 21.4865C12.7714 21.1608 12.8514 20.8372 12.9353 20.5135C12.965 20.3989 12.9946 20.2843 13.0252 20.1662C13.5006 18.3771 14.1163 16.7139 15.0505 15.0923C15.14 14.9298 15.14 14.9298 15.2312 14.7641C16.2677 12.9079 17.6629 11.1997 19.195 9.68254C19.4552 9.42908 19.4552 9.42908 19.6496 9.16513C19.7253 9.07463 19.7253 9.07463 19.8026 8.98229C19.8791 8.98229 19.9556 8.98229 20.0344 8.98229C20.0344 8.91028 20.0344 8.83827 20.0344 8.76408C20.1924 8.61406 20.1924 8.61406 20.4183 8.43676C20.8032 8.13011 21.1737 7.81387 21.5412 7.48889C22.3434 6.79982 23.2128 6.19984 24.091 5.59997C24.1977 5.5267 24.3044 5.45342 24.4143 5.37792C26.2227 4.16075 28.1328 3.26154 30.1833 2.46996C30.3743 2.39606 30.3743 2.39606 30.5693 2.32066C34.7732 0.723922 39.071 0.0173393 43.5919 0.00141429ZM52.6324 4.80895C52.2585 5.44255 52.259 6.26333 52.4414 6.95571C52.5681 7.28546 52.686 7.53248 52.9511 7.78211C53.2868 7.82263 53.4587 7.83294 53.7335 7.63891C54.0544 7.23108 54.0135 6.81162 54.016 6.32281C54.0185 6.10888 54.0185 6.10888 54.021 5.89064C53.9904 5.4325 53.8954 5.11819 53.6104 4.74757C53.4139 4.59792 53.4139 4.59792 53.125 4.57027C52.8228 4.59313 52.8228 4.59313 52.6324 4.80895ZM57.4035 7.21314C56.9241 7.82743 56.8667 8.24872 56.8919 8.98229C57.029 9.13322 57.029 9.13322 57.4135 9.14595C58.0909 9.13792 58.5174 8.7614 58.9782 8.32765C59.4155 7.84531 59.4887 7.38617 59.4581 6.76989C59.4527 6.70786 59.4473 6.64584 59.4418 6.58194C58.667 6.21728 57.9238 6.6618 57.4035 7.21314ZM39.9989 7.58436C39.9387 7.63703 39.8785 7.6897 39.8164 7.74397C39.62 7.91926 39.62 7.91926 39.3904 8.21854C39.4038 8.63833 39.5522 8.8937 39.854 9.20051C39.9305 9.20051 40.007 9.20051 40.0858 9.20051C40.1169 9.26802 40.148 9.33553 40.18 9.40508C40.3125 9.66961 40.3125 9.66961 40.6653 9.85515C41.2256 9.84185 41.5361 9.54312 41.9185 9.19369C41.9767 9.14214 42.0349 9.09059 42.0949 9.03748C42.2375 8.91093 42.3788 8.78307 42.5198 8.65497C42.3657 8.22435 42.1784 7.96682 41.8316 7.65255C41.7517 7.57899 41.6717 7.50543 41.5894 7.42965C40.8913 6.84021 40.6008 7.0199 39.9989 7.58436ZM47.2719 7.01836C47.1503 7.3279 47.1019 7.46255 47.1559 7.78211C47.5947 8.39233 48.182 8.98885 48.8945 9.30961C49.3245 9.35525 49.3245 9.35525 49.7058 9.30961C49.8555 9.19126 49.8555 9.19126 49.858 8.90728C49.7851 8.18075 49.2394 7.73864 48.6736 7.28943C48.2192 6.98623 47.8178 6.84706 47.2719 7.01836ZM28.1477 8.32765C27.7848 8.89357 27.7393 9.36277 27.7203 10.0052C27.7163 10.0959 27.7124 10.1866 27.7083 10.2801C27.6988 10.5021 27.6912 10.7241 27.6841 10.9462C27.6115 10.8845 27.5388 10.8227 27.464 10.7591C27.3693 10.6791 27.2746 10.5991 27.177 10.5166C27.0829 10.4369 26.9887 10.3571 26.8918 10.275C26.59 10.0324 26.473 9.96948 26.0759 9.93698C25.6702 9.96753 25.5163 10.0025 25.2501 10.2916C25.1921 10.6505 25.2198 10.8766 25.366 11.2122C25.7655 11.694 26.2833 12.0648 26.7795 12.4562C27.4307 13.0093 27.6485 13.5205 27.8 14.3285C27.6671 14.2195 27.5343 14.1104 27.4016 14.0012C27.317 13.9322 27.2324 13.8631 27.1453 13.792C26.9631 13.6401 26.7838 13.4852 26.6074 13.3274C25.9131 12.7088 25.9131 12.7088 25.0183 12.4737C24.6663 12.5525 24.6663 12.5525 24.4388 12.801C24.3224 13.1592 24.3224 13.1592 24.4388 13.5648C24.9293 14.2138 25.586 14.7535 26.2063 15.29C26.3687 15.4316 26.5311 15.5733 26.6935 15.715C26.7642 15.7763 26.8349 15.8376 26.9077 15.9007C26.9727 15.958 27.0376 16.0152 27.1046 16.0743C27.1694 16.1288 27.2343 16.1833 27.3012 16.2395C27.549 16.5054 27.4982 16.7741 27.4957 17.1176C27.4971 17.3068 27.4971 17.3068 27.4984 17.4999C27.4832 17.6055 27.468 17.7111 27.4523 17.82C27.1046 18.0382 27.1046 18.0382 26.8845 18.0129C26.3925 17.8436 25.9416 17.5977 25.4819 17.3631C25.3773 17.3118 25.2727 17.2606 25.165 17.2077C24.5705 16.9043 24.1497 16.6716 23.8592 16.0743C23.7177 15.6217 23.6089 15.1648 23.5043 14.7036C23.4483 14.46 23.3915 14.2167 23.3336 13.9735C23.3092 13.8663 23.2849 13.759 23.2598 13.6485C23.1558 13.3213 23.0309 13.0762 22.8161 12.801C22.4684 12.7283 22.4684 12.7283 22.1207 12.801C21.9167 12.9285 21.9167 12.9285 21.773 13.1284C21.7252 13.3812 21.7252 13.3812 21.739 13.6615C21.7401 13.7639 21.7413 13.8662 21.7424 13.9716C21.7453 14.0781 21.7482 14.1847 21.7512 14.2944C21.7528 14.4022 21.7544 14.5101 21.756 14.6211C21.7601 14.8873 21.7658 15.1534 21.773 15.4196C21.244 14.9901 21.1102 14.5125 20.8969 13.9023C20.7092 13.5231 20.5138 13.3614 20.1503 13.1284C19.914 13.2008 19.914 13.2008 19.6867 13.3466C19.6056 13.585 19.6056 13.585 19.5998 13.8512C19.5932 13.9404 19.5866 14.0295 19.5798 14.1214C19.5769 14.1898 19.5739 14.2581 19.5708 14.3285C19.5133 14.2958 19.4557 14.263 19.3965 14.2292C18.9668 14.0028 18.7042 13.8921 18.2017 13.8921C17.8333 13.9763 17.8333 13.9763 17.6004 14.1853C17.4349 14.5456 17.4639 14.722 17.6004 15.0923C18.1629 15.6021 18.8133 15.9275 19.4983 16.272C19.6058 16.3268 19.7132 16.3816 19.8239 16.438C20.0869 16.572 20.3502 16.7053 20.6139 16.838C20.5362 16.8669 20.4585 16.8958 20.3785 16.9256C20.2755 16.964 20.1726 17.0025 20.0666 17.0422C19.9649 17.08 19.8633 17.1179 19.7587 17.157C18.8838 17.4777 18.8838 17.4777 18.1799 18.0382C18.1799 18.4371 18.2235 18.6225 18.5204 18.911C19.3795 19.1751 20.3806 18.7117 21.2067 18.449C21.4327 18.3789 21.6598 18.3168 21.8889 18.2564C22.0287 18.2176 22.1686 18.1788 22.3126 18.1388C23.0668 18.0645 23.7375 18.5513 24.3663 18.8906C24.5052 18.963 24.6442 19.0353 24.7833 19.1073C25.7844 19.6322 25.7844 19.6322 26.0614 19.893C26.0407 20.1109 26.0407 20.1109 25.9455 20.3294C25.6669 20.5 25.3996 20.6445 25.1052 20.7863C24.3247 21.1753 23.6319 21.6087 22.9393 22.1237C22.3945 22.3841 21.9611 22.271 21.4045 22.1122C21.0531 22.0006 20.7058 21.8801 20.3588 21.757C19.7433 21.5505 19.182 21.4563 18.5277 21.5296C18.2147 21.6769 18.1098 21.7708 17.9554 22.0615C17.9447 22.4047 18.0835 22.5632 18.2958 22.8389C18.9681 23.2571 19.6882 23.568 20.498 23.6026C20.498 23.6747 20.498 23.7467 20.498 23.8209C20.3978 23.8481 20.2975 23.8754 20.1942 23.9035C19.7798 24.047 19.4638 24.2276 19.0999 24.4619C18.9838 24.5358 18.8678 24.6098 18.7481 24.686C18.0333 25.126 18.0333 25.126 17.6004 25.7848C17.5521 26.1213 17.5521 26.1213 17.6004 26.4394C18.0355 26.7124 18.3719 26.7347 18.8754 26.6576C19.2505 26.5187 19.5879 26.3344 19.933 26.1394C20.0225 26.091 20.112 26.0426 20.2042 25.9928C20.7011 25.7218 21.1831 25.4352 21.6571 25.1301C21.6379 25.2337 21.6188 25.3372 21.5991 25.4438C21.5055 26.0812 21.4119 26.7257 21.7078 27.3191C21.9286 27.5999 21.9286 27.5999 22.2728 27.6873C22.6151 27.6689 22.6151 27.6689 22.8218 27.3546C23.0491 26.983 23.1624 26.6751 23.2675 26.2596C23.3042 26.1229 23.3409 25.9862 23.3786 25.8453C23.4346 25.6313 23.4896 25.4171 23.5432 25.2026C23.954 23.577 24.7256 22.8916 26.2013 22.0359C26.5984 21.8272 26.8074 21.7445 27.2712 21.7683C27.5682 21.8569 27.5682 21.8569 27.6841 21.966C27.8976 23.7281 27.8976 23.7281 27.4581 24.3681C27.1604 24.6136 26.8563 24.8177 26.525 25.021C26.356 25.1571 26.1892 25.2956 26.0252 25.437C25.7784 25.6403 25.531 25.8337 25.2718 26.0235C24.8503 26.3522 24.6881 26.5231 24.6199 27.0463C24.6346 27.419 24.6346 27.419 24.8589 27.6396C25.244 27.7922 25.4265 27.7471 25.8296 27.6396C26.1363 27.446 26.4047 27.219 26.6772 26.985C26.7504 26.9239 26.8237 26.8629 26.8992 26.8C27.2398 26.5168 27.2398 26.5168 27.5682 26.2212C27.5733 26.8338 27.4748 27.1258 27.0181 27.5697C26.8388 27.7314 26.6575 27.891 26.4743 28.0488C26.2929 28.2091 26.1119 28.3699 25.9315 28.5312C25.8509 28.6011 25.7703 28.6709 25.6872 28.7429C25.3976 29.0335 25.265 29.2699 25.2139 29.6649C25.2303 29.9314 25.2303 29.9314 25.3805 30.1286C25.7187 30.3303 25.8971 30.3215 26.2932 30.2582C26.6264 30.066 26.9205 29.8384 27.2205 29.6035C27.3746 29.494 27.5291 29.3848 27.6841 29.2762C27.6822 29.3527 27.6804 29.4291 27.6786 29.5079C27.6713 29.8557 27.6668 30.2035 27.6623 30.5514C27.6594 30.6717 27.6565 30.792 27.6535 30.916C27.6524 31.0324 27.6513 31.1488 27.6501 31.2687C27.6483 31.3755 27.6465 31.4824 27.6446 31.5925C27.6915 31.9513 27.8037 32.1515 28.0318 32.4403C28.3574 32.6213 28.3574 32.6213 28.7272 32.6585C29.1403 32.4906 29.2868 32.3593 29.5385 32.0039C29.5584 31.7019 29.5655 31.4122 29.5603 31.1106C29.5602 31.0309 29.5601 30.9512 29.56 30.8691C29.5555 30.3302 29.5029 29.8098 29.4226 29.2762C29.4855 29.3288 29.5484 29.3814 29.6132 29.4356C29.6962 29.5045 29.7791 29.5734 29.8645 29.6444C29.9465 29.7128 30.0286 29.7812 30.1131 29.8516C30.4305 30.1041 30.6254 30.2511 31.0453 30.2923C31.385 30.2823 31.385 30.2823 31.6103 30.1354C31.8043 29.8311 31.7818 29.6267 31.7407 29.2762C31.5188 28.9684 31.5188 28.9684 31.2119 28.6898C31.0537 28.5349 31.0537 28.5349 30.8923 28.3769C30.7898 28.2776 30.6873 28.1783 30.5817 28.076C30.4282 27.9135 30.2759 27.75 30.1253 27.5851C29.948 27.3915 29.7789 27.2103 29.5757 27.0408C29.3197 26.7649 29.4017 26.4609 29.4226 26.1121C29.4872 26.1688 29.5517 26.2255 29.6182 26.2839C30.6165 27.2026 30.6165 27.2026 31.9001 27.5782C32.3246 27.5713 32.3246 27.5713 32.552 27.3123C32.5987 26.9774 32.6233 26.762 32.552 26.4394C32.3262 26.1759 32.1443 25.9997 31.8711 25.7916C31.803 25.7363 31.7349 25.6811 31.6647 25.6241C31.526 25.5117 31.3864 25.4002 31.246 25.2896C30.9569 25.0599 30.6793 24.8186 30.4006 24.5778C30.0371 24.2657 30.0371 24.2657 29.6282 24.0131C29.3024 23.7084 29.3395 23.3438 29.3285 22.9344C29.3241 22.8535 29.3196 22.7726 29.3151 22.6893C29.3058 22.4848 29.3055 22.2799 29.3067 22.0751C29.4226 21.966 29.4226 21.966 29.7363 21.9401C30.1691 21.9695 30.4026 22.0719 30.7782 22.2725C30.8993 22.336 31.0205 22.3995 31.1453 22.4649C31.2701 22.5321 31.3949 22.5992 31.5234 22.6684C31.7721 22.8005 32.0212 22.9322 32.2704 23.0635C32.3801 23.1224 32.4898 23.1812 32.6028 23.2418C32.8618 23.3662 33.0795 23.4427 33.3634 23.4935C33.3817 23.6371 33.3817 23.6371 33.4004 23.7836C33.4467 24.1412 33.4941 24.4987 33.5423 24.856C33.5629 25.0103 33.583 25.1646 33.6027 25.3189C33.6311 25.5417 33.6612 25.7642 33.6916 25.9868C33.7092 26.1205 33.7268 26.2542 33.745 26.392C33.8538 26.8895 34.0227 27.2783 34.4065 27.6396C34.7581 27.6299 34.7581 27.6299 35.1019 27.5305C35.3734 27.1471 35.365 26.9815 35.3627 26.5281C35.3633 26.4095 35.3639 26.2909 35.3645 26.1688C35.329 25.7259 35.2271 25.3397 35.1019 24.9119C35.1982 24.9622 35.1982 24.9622 35.2963 25.0134C35.5936 25.1685 35.8911 25.3232 36.1885 25.4779C36.2894 25.5306 36.3902 25.5833 36.4941 25.6375C36.8018 25.7974 37.1106 25.9553 37.42 26.1121C37.5234 26.1648 37.6267 26.2175 37.7332 26.2718C37.8333 26.3212 37.9335 26.3706 38.0367 26.4215C38.1257 26.4659 38.2148 26.5102 38.3065 26.5559C38.7671 26.7278 39.2524 26.7412 39.7381 26.6576C40.0119 26.442 40.0119 26.442 40.0423 26.0371C40.0336 25.7387 40.0048 25.6062 39.8007 25.3744C39.2024 24.8936 38.5865 24.5394 37.8836 24.2096C37.7828 24.161 37.6819 24.1124 37.578 24.0623C37.3328 23.9443 37.0869 23.8275 36.8405 23.7118C37.3133 23.415 37.823 23.2641 38.3549 23.081C38.702 22.9691 38.702 22.9691 38.9268 22.7298C38.9676 22.2879 38.9179 22.0235 38.695 21.6387C37.7124 21.7143 36.7981 21.9426 35.8487 22.1847C35.7294 22.2141 35.6101 22.2435 35.4872 22.2738C35.326 22.3147 35.326 22.3147 35.1615 22.3565C33.8581 22.5621 31.9452 20.7706 30.9294 20.1112C31.12 19.7198 31.2724 19.5786 31.6755 19.3679C32.2331 19.0686 32.773 18.75 33.3118 18.4218C33.9743 18.0352 34.3399 18.0065 35.1019 18.1473C35.4681 18.2407 35.8241 18.3545 36.1813 18.4746C36.3619 18.5338 36.5425 18.5929 36.7232 18.6519C36.8016 18.6781 36.8799 18.7042 36.9606 18.7312C37.3959 18.8665 37.7865 18.9306 38.2458 18.9383C38.3465 18.9411 38.4472 18.9439 38.551 18.9468C38.6367 18.935 38.7225 18.9232 38.8109 18.911C39.0814 18.529 39.1206 18.3786 39.0427 17.9291C38.5308 17.5471 37.9881 17.3421 37.3765 17.138C37.2912 17.1088 37.2059 17.0795 37.118 17.0494C36.9099 16.9782 36.7014 16.908 36.4928 16.838C36.9671 16.2844 37.6429 16.1184 38.3271 15.8752C38.9557 15.6408 39.5316 15.3748 39.9699 14.8741C40.038 14.5189 40.038 14.5189 39.9699 14.2194C39.8934 14.2194 39.8169 14.2194 39.7381 14.2194C39.7381 14.1474 39.7381 14.0754 39.7381 14.0012C38.8983 13.928 38.3752 14.156 37.6518 14.5468C37.6629 14.4797 37.6739 14.4126 37.6853 14.3435C37.6982 14.2553 37.711 14.1671 37.7243 14.0762C37.7377 13.9889 37.7511 13.9015 37.765 13.8116C37.7927 13.5335 37.7927 13.5335 37.5359 13.2375C37.2036 13.2409 37.2036 13.2409 36.8405 13.3466C36.3785 13.9077 36.1408 14.5283 35.8739 15.1856C35.6632 15.5612 35.5051 15.6795 35.1019 15.856C35.1185 15.6685 35.1185 15.6685 35.1354 15.4771C35.1485 15.3102 35.1615 15.1433 35.1744 14.9764C35.1818 14.8943 35.1893 14.8122 35.197 14.7277C35.243 14.1029 35.2038 13.5655 34.8411 13.0193C34.6278 12.8859 34.6278 12.8859 34.2978 12.8897C33.9078 12.9961 33.9078 12.9961 33.6821 13.3739C33.2507 14.3181 33.2037 15.3871 33.2475 16.4016C33.1829 16.4294 33.1184 16.4573 33.0519 16.486C32.7455 16.6389 32.4822 16.8199 32.2043 17.0153C31.7266 17.3443 31.2485 17.672 30.7628 17.9904C30.6506 18.0648 30.5384 18.1393 30.4228 18.2159C30.1181 18.3655 30.1181 18.3655 29.8604 18.348C29.6544 18.2564 29.6544 18.2564 29.4226 18.0382C29.2362 17.545 29.1994 17.134 29.3067 16.6198C29.9339 15.6707 31.0696 14.9479 32.0391 14.3354C32.3714 14.0694 32.5124 13.8374 32.6679 13.4557C32.6002 13.0873 32.5433 12.8839 32.2333 12.6442C31.8509 12.5542 31.6568 12.5751 31.2771 12.6919C30.6619 13.1076 30.1409 13.6435 29.6155 14.1538C29.4226 14.3285 29.4226 14.3285 29.1908 14.4376C29.163 14.0386 29.163 13.8257 29.3067 13.4557C29.6776 13.0627 30.0906 12.7331 30.5195 12.3979C30.7723 12.1958 31.0069 11.9788 31.2409 11.7577C31.3491 11.6562 31.3491 11.6562 31.4596 11.5527C31.7203 11.2844 31.7408 11.1636 31.7697 10.7894C31.77 10.417 31.77 10.417 31.6176 10.1825C31.3398 10.0475 31.1249 10.0365 30.8185 10.09C30.1927 10.3344 29.6762 10.861 29.3067 11.3826C29.305 11.3128 29.3033 11.2429 29.3016 11.171C29.2929 10.8528 29.2818 10.5347 29.2705 10.2166C29.2679 10.1067 29.2653 9.99674 29.2626 9.88349C29.2386 9.26241 29.2182 8.78982 28.7272 8.32765C28.5341 8.32322 28.3408 8.32299 28.1477 8.32765ZM49.9367 9.88669C49.1962 10.8055 48.8527 11.8673 49.0104 13.0193C49.28 14.2565 49.8386 15.2115 50.9568 15.934C52.0778 16.5485 53.269 16.6888 54.5444 16.4514C55.0796 16.2977 55.5168 16.0655 55.9647 15.7469C56.1368 15.6322 56.1368 15.6322 56.3124 15.5151C57.038 14.9327 57.5164 14.0127 57.6108 13.1259C57.6224 12.8921 57.6254 12.6601 57.6235 12.426C57.623 12.344 57.6226 12.262 57.6221 12.1776C57.6022 11.2651 57.273 10.6295 56.776 9.85515C56.6995 9.85515 56.623 9.85515 56.5442 9.85515C56.4868 9.69312 56.4868 9.69312 56.4283 9.52783C55.3452 8.63773 54.3391 8.36716 52.9186 8.39925C51.6987 8.50539 50.7391 9.02553 49.9367 9.88669ZM44.6061 11.8191C44.5187 12.0728 44.5187 12.0728 44.6061 12.3646C45.4154 13.0759 46.5079 13.1731 47.5657 13.1578C47.9221 13.1211 48.1553 13.0158 48.4309 12.801C48.409 12.4306 48.3471 12.2849 48.0614 12.0237C47.2674 11.5751 45.3734 11.0967 44.6061 11.8191ZM58.3986 11.71C58.3213 12.028 58.3213 12.028 58.3986 12.3646C58.8775 12.8735 59.5504 13.087 60.2559 13.149C60.5208 13.1641 60.7846 13.1718 61.0499 13.1761C61.1369 13.1785 61.2238 13.1809 61.3133 13.1834C61.7071 13.1819 61.9311 13.1809 62.2271 12.9242C62.3663 12.6922 62.3663 12.6922 62.2959 12.4192C61.8853 11.8246 61.1845 11.6504 60.4849 11.4918C60.0373 11.4576 60.0373 11.4576 59.5867 11.4645C59.4366 11.4639 59.2866 11.4634 59.1321 11.4628C58.7306 11.4633 58.7306 11.4633 58.3986 11.71ZM47.6196 16.1288C47.2583 16.4885 47.0567 16.7904 47.0038 17.2881C47.0158 17.3916 47.0277 17.4951 47.04 17.6018C47.4224 17.8417 47.6057 17.8559 48.0533 17.7914C48.7519 17.5764 49.4478 16.9883 49.8217 16.4016C49.9147 15.999 49.9147 15.999 49.9376 15.6378C49.0837 15.1432 48.332 15.4709 47.6196 16.1288ZM56.8919 15.7469C56.7185 16.0734 56.7264 16.2534 56.776 16.6198C57.1963 17.397 57.8709 18.2398 58.7463 18.5837C59.1038 18.6292 59.1038 18.6292 59.4418 18.5837C59.7117 18.2718 59.7117 18.2718 59.6591 17.895C59.5472 17.4511 59.3861 17.1993 59.0941 16.838C59.0271 16.7457 58.9602 16.6535 58.8912 16.5584C58.5028 16.1623 58.045 15.7954 57.4628 15.7128C57.2183 15.7092 57.2183 15.7092 56.8919 15.7469ZM53.0671 16.838C52.4225 17.5426 52.4635 18.1146 52.4586 19.0133C52.4562 19.1213 52.4538 19.2292 52.4513 19.3404C52.4364 20.1117 52.4364 20.1117 52.8352 20.7659C53.125 20.8568 53.125 20.8568 53.4148 20.7659C53.9481 20.1204 53.9028 19.4262 53.9074 18.6451C53.9097 18.5423 53.9121 18.4396 53.9146 18.3338C53.9221 17.585 53.9221 17.585 53.5307 16.9471C53.289 16.8513 53.289 16.8513 53.0671 16.838ZM44.338 18.6519C44.2743 18.7103 44.2106 18.7686 44.1449 18.8288C43.8598 19.1028 43.6881 19.2766 43.6376 19.6637C43.6512 19.7394 43.6648 19.815 43.6788 19.893C43.7553 19.893 43.8318 19.893 43.9106 19.893C43.9106 19.965 43.9106 20.037 43.9106 20.1112C43.9871 20.1112 44.0636 20.1112 44.1424 20.1112C44.1424 20.1832 44.1424 20.2552 44.1424 20.3294C44.297 20.5113 44.297 20.5113 44.4902 20.6568C44.5667 20.6568 44.6431 20.6568 44.722 20.6568C44.722 20.7288 44.722 20.8008 44.722 20.875C45.0379 21.1192 45.0379 21.1192 45.3422 21.0842C45.7463 20.9524 45.9676 20.7538 46.2722 20.4726C46.3759 20.3799 46.4796 20.2873 46.5864 20.1918C46.8403 19.909 46.8403 19.909 46.8146 19.5657C46.6712 19.1819 46.4913 18.9582 46.1997 18.6587C46.1107 18.5646 46.0216 18.4705 45.9299 18.3736C45.2424 17.8193 44.8977 18.0976 44.338 18.6519ZM20.3319 19.8708C20.0662 20.2225 20.0774 20.4553 20.1503 20.875C20.6121 21.2328 20.9597 21.2311 21.5412 21.1818C21.6931 21.1692 21.8451 21.1565 22.0016 21.1435C22.663 21.0757 23.3197 20.9821 23.9751 20.875C23.9751 20.7309 23.9751 20.5869 23.9751 20.4385C23.7359 20.2445 23.7359 20.2445 23.4246 20.0908C23.3224 20.0352 23.2202 19.9796 23.1149 19.9224C22.5676 19.6687 22.0938 19.6514 21.4832 19.6407C21.3314 19.6366 21.1796 19.6325 21.0232 19.6283C20.6112 19.643 20.6112 19.643 20.3319 19.8708ZM33.9429 20.0021C33.9139 20.3977 33.9139 20.3977 33.9429 20.7659C34.2908 20.9541 34.5426 21.012 34.9426 21.0131C35.0436 21.0133 35.1446 21.0136 35.2486 21.0139C35.3532 21.0131 35.4578 21.0122 35.5655 21.0113C35.6701 21.0122 35.7747 21.013 35.8825 21.0139C36.034 21.0135 36.034 21.0135 36.1885 21.0131C36.2803 21.0128 36.372 21.0126 36.4665 21.0123C36.7585 20.9804 36.943 20.9181 37.1882 20.7659C37.3136 20.4484 37.3136 20.4484 37.3041 20.1112C37.1415 19.8776 37.0257 19.8039 36.7436 19.7226C36.2941 19.6369 35.8416 19.6501 35.3844 19.6475C35.2844 19.6453 35.1844 19.643 35.0813 19.6407C34.9852 19.6401 34.889 19.6396 34.79 19.639C34.7025 19.638 34.615 19.6369 34.5249 19.6359C34.223 19.686 34.1218 19.7703 33.9429 20.0021ZM20.2825 30.1064C20.2102 30.1835 20.1379 30.2606 20.0634 30.34C19.9899 30.416 19.9164 30.4919 19.8406 30.5702C19.6629 30.7895 19.6629 30.7895 19.7012 31.0258C19.8144 31.265 19.9422 31.4421 20.1213 31.6425C20.1781 31.7082 20.2349 31.7738 20.2934 31.8415C20.5475 32.0431 20.7521 32.0739 21.0775 32.113C21.2173 31.9624 21.3544 31.8097 21.4904 31.6561C21.6054 31.5289 21.6054 31.5289 21.7227 31.3991C21.915 31.142 21.915 31.142 21.8839 30.848C21.7507 30.5328 21.616 30.419 21.3238 30.2241C21.2429 30.1682 21.1619 30.1124 21.0784 30.0549C20.7432 29.8762 20.5772 29.8663 20.2825 30.1064Z" fill="white"/>
<path fill-rule="evenodd" clip-rule="evenodd" d="M134.257 19.2635C134.619 19.087 135.272 18.8634 135.707 18.7457C136.229 18.6163 136.998 18.5457 137.955 18.5457C138.811 18.5339 139.739 18.6045 140.203 18.7104C140.638 18.8046 141.261 19.0163 141.581 19.1693C141.9 19.334 142.393 19.6635 142.697 19.9106C142.987 20.1577 143.364 20.5695 143.524 20.8284C143.698 21.0872 143.872 21.5814 144.046 22.5463L140.71 22.4757L140.638 22.0638C140.594 21.8403 140.449 21.5108 140.304 21.3226C140.174 21.1461 139.84 20.9225 139.594 20.8166C139.333 20.7107 138.753 20.593 138.317 20.5577C137.882 20.5342 137.288 20.5577 137.012 20.6283C136.737 20.6989 136.331 20.8637 136.113 21.0049C135.866 21.1461 135.649 21.4285 135.562 21.7109C135.446 22.0756 135.46 22.2756 135.634 22.5933C135.779 22.8757 136.084 23.111 136.621 23.3581C137.027 23.5464 137.998 23.8759 138.753 24.0759C139.507 24.2759 140.551 24.6289 141.073 24.8407C141.595 25.0525 142.291 25.4525 142.639 25.7114C142.973 25.9703 143.393 26.4056 143.567 26.6762C143.843 27.088 143.901 27.3704 143.901 28.2411C143.901 29.0883 143.843 29.3942 143.596 29.7708C143.422 30.0296 143.016 30.4414 142.683 30.6768C142.364 30.9239 141.813 31.218 141.479 31.3475C141.131 31.4651 140.507 31.6181 140.101 31.7005C139.681 31.771 138.825 31.8299 138.216 31.8299C137.592 31.8299 136.679 31.7475 136.186 31.6534C135.678 31.5593 134.895 31.3239 134.445 31.1357C133.981 30.9474 133.314 30.5356 132.966 30.2296C132.603 29.912 132.197 29.4413 132.067 29.1825C131.922 28.9236 131.777 28.4647 131.646 27.594H134.982V27.8881C134.982 28.0529 135.069 28.3588 135.17 28.5588C135.286 28.7706 135.562 29.0883 135.794 29.2531C136.026 29.4178 136.563 29.6178 136.983 29.6884C137.389 29.7708 137.955 29.8296 138.216 29.8296C138.462 29.8296 138.941 29.7708 139.26 29.7002C139.579 29.6178 140.014 29.406 140.246 29.2295C140.565 28.9471 140.638 28.7824 140.638 28.2647C140.638 27.9117 140.551 27.5352 140.42 27.3822C140.304 27.241 139.927 26.9939 139.594 26.841C139.246 26.688 138.288 26.3585 137.447 26.1232C136.606 25.8761 135.475 25.4878 134.924 25.2525C134.329 25.0054 133.633 24.5818 133.212 24.2053C132.821 23.8641 132.458 23.4052 132.371 23.1463C132.299 22.911 132.226 22.3933 132.226 22.005C132.226 21.5814 132.342 21.1108 132.502 20.8284C132.647 20.5695 132.951 20.1812 133.183 19.9576C133.416 19.7459 133.894 19.4282 134.257 19.2635ZM98 31.5004C98 31.4533 99.3197 28.5471 100.93 25.0289L103.859 18.6516H106.992L108.384 21.7344C109.011 23.1254 109.994 25.2752 110.776 26.9848C110.953 27.372 111.12 27.7366 111.27 28.0647C112.097 29.8414 112.807 31.3945 112.851 31.5004C112.938 31.7004 112.793 31.7122 109.414 31.6534L108.297 28.8883H102.496L101.408 31.5946H99.7113C98.7686 31.5946 98 31.5592 98 31.5004ZM114.461 31.6416L114.417 25.1466L114.388 18.6398H117.724V29.5825H124.685V31.7005L114.461 31.6416ZM149.937 20.7565C150.411 19.7269 150.72 19.0567 150.761 18.9693L150.92 18.6516H153.966L154.27 19.3223C154.444 19.6988 155.025 20.9813 155.561 22.1815C155.74 22.5719 155.987 23.113 156.271 23.7343C156.858 25.0228 157.603 26.6563 158.23 28.0058C159.158 30.0061 159.926 31.6652 159.912 31.6769C159.912 31.7005 159.114 31.7005 156.373 31.6534L155.88 30.3591C155.605 29.6531 155.315 29.0295 155.213 28.9824C155.126 28.9236 153.821 28.9001 149.543 28.9471L148.382 31.7122H146.685C145.743 31.7122 144.974 31.6769 144.974 31.6181C144.974 31.5753 146.029 29.267 147.375 26.3195C147.51 26.0246 147.648 25.7233 147.788 25.4172C148.619 23.6138 149.388 21.9455 149.937 20.7565ZM161.406 26.9233C161.464 24.2759 161.507 21.3343 161.507 20.3812V18.6398H164.48C166.119 18.6398 167.961 18.6987 168.585 18.7692C169.194 18.8398 169.991 18.9928 170.354 19.0987C170.716 19.2164 171.253 19.4635 171.572 19.6518C171.877 19.84 172.297 20.2401 172.5 20.5225C172.776 20.9107 172.892 21.2755 172.935 21.8756C172.979 22.3697 172.935 22.8992 172.819 23.1698C172.718 23.4405 172.5 23.8053 172.326 23.9935C172.167 24.1818 171.775 24.4877 170.934 24.9936L171.485 25.2172C171.775 25.3349 172.239 25.6408 172.5 25.8996C172.761 26.1467 173.08 26.6409 173.211 26.9939C173.399 27.5469 173.414 27.794 173.283 28.5235C173.167 29.1236 172.993 29.5825 172.718 29.9355C172.486 30.2297 171.978 30.6415 171.587 30.865C171.181 31.0768 170.542 31.3357 170.136 31.4416C169.556 31.5945 168.57 31.6416 161.29 31.724L161.406 26.9233ZM177.344 25.4408C178.925 21.9932 180.274 19.0634 180.361 18.9105C180.491 18.6634 180.593 18.6516 181.956 18.6516C183.189 18.6516 183.421 18.6869 183.537 18.8516C183.609 18.9693 184.915 21.7697 186.423 25.0642C186.965 26.2376 187.48 27.3543 187.929 28.3287C188.741 30.0901 189.339 31.3865 189.497 31.7122H185.944L184.915 29.0648H179.026L177.968 31.7122L174.487 31.7005L177.344 25.4408ZM190.919 25.2643C190.904 21.7109 190.948 18.7693 191.02 18.734C191.093 18.6869 191.847 18.6516 194.283 18.6516V24.0641H200.809V18.7692H204V31.7122H200.809V26.0644H194.283V31.7122H190.948L190.919 25.2643ZM163.915 37.5601C163.726 37.466 163.668 37.3483 163.741 37.2071C163.813 37.0659 163.958 37.007 164.161 37.0306C164.35 37.0541 164.495 37.16 164.524 37.3012C164.553 37.4306 164.495 37.5718 164.379 37.6189C164.277 37.666 164.06 37.6425 163.915 37.5601ZM125.396 40.4193V38.772V37.1247H125.831C126.266 37.1247 126.266 37.1365 126.266 38.419H127.861V37.7719C127.861 37.1365 127.861 37.1247 128.731 37.1247V40.4193H127.861V39.0073H126.266V40.4193H125.396ZM129.877 38.9132C129.543 38.0896 129.239 37.3483 129.195 37.2659C129.152 37.1718 129.268 37.1247 129.572 37.1247C130.022 37.1247 130.036 37.1365 130.413 38.1484C130.617 38.7249 130.82 39.2662 130.863 39.3603C130.907 39.4544 131.124 39.0662 131.356 38.4778C131.588 37.8895 131.777 37.3483 131.777 37.2659C131.777 37.1836 131.98 37.1247 132.792 37.1247L132.096 38.7367C131.4 40.3369 131.385 40.3605 130.471 40.4193L129.877 38.9132ZM133.915 37.5549C133.97 37.4387 134.008 37.3579 134.025 37.3247C134.083 37.2071 134.271 37.1247 134.503 37.1247C134.851 37.1247 134.938 37.2071 135.272 37.9719C135.489 38.4422 135.837 39.1829 136.416 40.4169L136.418 40.4193H135.983C135.634 40.4193 135.518 40.3487 135.402 40.0663C135.272 39.7368 135.214 39.7133 134.532 39.7133C133.851 39.7133 133.793 39.7368 133.662 40.0663C133.546 40.3487 133.43 40.4193 133.082 40.4193C132.835 40.4193 132.632 40.3958 132.618 40.3605C132.603 40.3369 132.893 39.6898 133.256 38.925C133.527 38.3757 133.775 37.8507 133.915 37.5549ZM136.751 37.9131C136.853 37.7131 137.099 37.4424 137.302 37.3247C137.505 37.2071 137.911 37.1247 138.259 37.1247C138.607 37.1247 139.043 37.2188 139.246 37.3247C139.449 37.4424 139.681 37.6777 139.753 37.8542C139.884 38.1719 139.869 38.1837 139.463 38.1837C139.217 38.1837 139.028 38.1249 139.028 38.066C139.028 38.0072 138.927 37.866 138.811 37.7719C138.695 37.6777 138.433 37.5954 138.23 37.5954C138.013 37.5954 137.781 37.7013 137.65 37.8542C137.52 38.0189 137.433 38.3955 137.433 38.7955C137.433 39.325 137.505 39.5368 137.723 39.7133C137.882 39.8427 138.114 39.9486 138.23 39.9486C138.361 39.9486 138.622 39.8192 138.825 39.6545C139.028 39.4898 139.347 39.3603 139.536 39.3603C139.84 39.3603 139.884 39.3956 139.782 39.6192C139.724 39.7486 139.507 39.9957 139.275 40.1487C138.999 40.3369 138.695 40.4193 138.259 40.4193C137.911 40.4193 137.505 40.3369 137.302 40.2192C137.099 40.1016 136.853 39.831 136.751 39.6192C136.65 39.4192 136.563 39.0309 136.563 38.772C136.563 38.5132 136.65 38.1249 136.751 37.9131ZM141.769 38.2072C141.856 37.9366 142.103 37.5836 142.32 37.4189C142.61 37.1835 142.857 37.1247 143.408 37.1247C143.93 37.1247 144.191 37.1953 144.452 37.3836C144.641 37.5365 144.844 37.7719 144.887 37.9131C144.96 38.1484 144.916 38.1837 144.539 38.1837C144.249 38.1837 144.104 38.1249 144.104 38.0072C144.104 37.9131 143.959 37.7719 143.77 37.7013C143.596 37.6307 143.321 37.5954 143.161 37.6307C143.002 37.666 142.784 37.8307 142.683 37.9954C142.596 38.1602 142.509 38.5132 142.509 38.772C142.509 39.0309 142.596 39.3839 142.683 39.5486C142.784 39.7133 143.002 39.8781 143.161 39.9134C143.321 39.9487 143.596 39.9133 143.77 39.8427C143.959 39.7721 144.104 39.631 144.104 39.5368C144.104 39.4192 144.249 39.3603 144.539 39.3603C144.858 39.3603 144.96 39.4074 144.902 39.5368C144.858 39.631 144.829 39.7721 144.829 39.831C144.829 39.8898 144.612 40.0545 144.351 40.184C144.104 40.3134 143.669 40.4193 143.408 40.4193C143.161 40.4193 142.77 40.3487 142.538 40.2546C142.32 40.1722 142.074 39.9722 141.987 39.8192C141.885 39.6662 141.769 39.3486 141.711 39.125C141.653 38.9015 141.682 38.4896 141.769 38.2072ZM173.182 37.8307C173.298 37.6424 173.544 37.3953 173.718 37.3012C173.907 37.2071 174.328 37.1247 174.661 37.1247C175.111 37.1247 175.401 37.2071 175.72 37.4189C175.952 37.5836 176.155 37.8189 176.155 37.9484C176.155 38.1053 176.058 38.1837 175.865 38.1837C175.705 38.1837 175.444 38.0543 175.285 37.8896C175.111 37.7131 174.85 37.5954 174.632 37.5954C174.415 37.5954 174.183 37.7013 174.052 37.8542C173.922 38.0189 173.834 38.3955 173.834 38.7955C173.834 39.325 173.907 39.5368 174.125 39.7133C174.284 39.8427 174.516 39.9486 174.632 39.9486C174.748 39.9486 174.995 39.8192 175.169 39.6545C175.357 39.5015 175.647 39.3721 175.821 39.3603C176.053 39.3603 176.155 39.4309 176.155 39.5957C176.155 39.7251 175.952 39.9604 175.72 40.1251C175.401 40.3369 175.111 40.4193 174.661 40.4193C174.328 40.4193 173.907 40.3369 173.718 40.2428C173.544 40.1486 173.298 39.9016 173.182 39.7133C173.066 39.525 172.964 39.0897 172.964 38.772C172.964 38.4426 173.066 38.0189 173.182 37.8307ZM151.863 37.9484C151.993 37.9484 152.08 37.8425 152.08 37.6542C152.08 37.4189 152.153 37.36 152.443 37.36C152.733 37.36 152.806 37.4189 152.806 37.6542C152.806 37.866 152.878 37.9484 153.096 37.9484C153.289 37.9484 153.386 38.0268 153.386 38.1837C153.386 38.3406 153.289 38.419 153.096 38.419C152.835 38.419 152.806 38.5014 152.806 39.125C152.806 39.7369 152.849 39.8428 153.096 39.8898C153.27 39.9251 153.386 40.0428 153.386 40.184C153.386 40.3722 153.284 40.4193 152.907 40.4193C152.661 40.4193 152.356 40.3605 152.255 40.2781C152.138 40.184 152.08 39.8074 152.08 39.2662C152.08 38.5955 152.037 38.419 151.863 38.419C151.747 38.419 151.645 38.3131 151.645 38.1837C151.645 38.0542 151.747 37.9484 151.863 37.9484ZM161.725 37.9484C161.855 37.9484 161.942 37.8425 161.942 37.6542C161.942 37.4189 162.015 37.36 162.305 37.36C162.595 37.36 162.667 37.4189 162.667 37.6542C162.667 37.866 162.74 37.9484 162.957 37.9484C163.151 37.9484 163.248 38.0268 163.248 38.1837C163.248 38.3406 163.151 38.419 162.957 38.419C162.696 38.419 162.667 38.5014 162.667 39.125C162.667 39.7369 162.711 39.8428 162.957 39.8898C163.132 39.9251 163.248 40.0428 163.248 40.184C163.248 40.3722 163.146 40.4193 162.812 40.4193C162.566 40.4193 162.276 40.3369 162.16 40.2428C162.015 40.1251 161.942 39.8192 161.942 39.2427C161.942 38.5837 161.899 38.419 161.725 38.419C161.609 38.419 161.507 38.3131 161.507 38.1837C161.507 38.0542 161.609 37.9484 161.725 37.9484ZM145.583 38.5014C145.67 38.3602 145.844 38.1837 145.975 38.1013C146.105 38.019 146.453 37.9484 146.743 37.9484C147.164 37.9484 147.396 38.0307 147.73 38.3014C148.078 38.5838 148.165 38.7485 148.165 39.1838C148.165 39.6074 148.078 39.7839 147.744 40.0663C147.425 40.3252 147.179 40.4193 146.802 40.4193C146.41 40.4193 146.163 40.3252 145.844 40.0663C145.511 39.7957 145.409 39.6074 145.409 39.2427C145.409 38.9838 145.482 38.6543 145.583 38.5014ZM148.745 40.4193V39.1838V37.9484H149.107C149.31 37.9484 149.47 38.0072 149.47 38.066C149.47 38.1445 149.567 38.1445 149.76 38.066C149.92 38.0072 150.21 37.9484 150.413 37.9484C150.616 37.9484 150.877 38.0307 150.993 38.1249C151.152 38.2543 151.21 38.572 151.21 39.3603C151.21 40.4075 151.21 40.4193 150.848 40.4193C150.5 40.4193 150.485 40.3958 150.485 39.5604C150.485 39.1015 150.427 38.6426 150.369 38.5484C150.297 38.4425 150.137 38.419 149.862 38.4661C149.47 38.5367 149.47 38.5485 149.47 39.478C149.47 40.4075 149.47 40.4193 148.745 40.4193ZM153.821 40.4193V39.1838V37.9484H154.183C154.386 37.9484 154.546 38.019 154.546 38.0896C154.546 38.2072 154.575 38.2072 154.72 38.0896C154.821 38.019 155.039 37.9484 155.228 37.9484C155.416 37.9484 155.561 38.0072 155.561 38.066C155.561 38.1249 155.532 38.2661 155.489 38.3602C155.445 38.4543 155.3 38.5367 155.155 38.5367C155.01 38.5367 154.821 38.6073 154.72 38.6779C154.618 38.772 154.546 39.1603 154.546 39.6192C154.546 40.3958 154.531 40.4193 153.821 40.4193ZM155.634 38.5955L156.025 38.266C156.33 38.0189 156.562 37.9484 157.011 37.9484C157.403 37.9484 157.693 38.0307 157.882 38.1837C158.114 38.3719 158.172 38.572 158.172 39.2427C158.172 39.7015 158.201 40.1486 158.244 40.2428C158.302 40.3722 158.201 40.4193 157.882 40.4193C157.635 40.4193 157.446 40.3604 157.446 40.2663C157.446 40.1486 157.417 40.1486 157.272 40.2663C157.171 40.3487 156.895 40.4193 156.649 40.4193C156.417 40.4193 156.098 40.3251 155.953 40.2075C155.808 40.1016 155.692 39.878 155.692 39.7133C155.692 39.5486 155.808 39.325 155.953 39.2074C156.098 39.1015 156.489 38.9603 156.837 38.9132C157.272 38.8544 157.446 38.7838 157.417 38.6543C157.388 38.5602 157.214 38.4661 157.011 38.4426C156.808 38.419 156.62 38.4661 156.576 38.5367C156.533 38.6073 156.301 38.6543 155.634 38.5955ZM158.752 39.1485C158.766 38.6544 158.839 38.4661 159.114 38.2425C159.361 38.0307 159.622 37.9484 160.013 37.9484C160.333 37.9366 160.695 38.0307 160.884 38.1484C161.058 38.266 161.232 38.4778 161.275 38.619C161.348 38.8426 161.304 38.8897 161 38.8897C160.782 38.8897 160.579 38.7955 160.492 38.6543C160.405 38.5249 160.216 38.419 160.057 38.419C159.897 38.419 159.694 38.5249 159.622 38.6543C159.535 38.7838 159.477 39.0191 159.477 39.1838C159.477 39.3486 159.535 39.5839 159.622 39.7133C159.694 39.8427 159.897 39.9486 160.057 39.9486C160.216 39.9486 160.376 39.8663 160.42 39.7721C160.463 39.6662 160.666 39.5957 160.927 39.5957C161.304 39.5957 161.348 39.6309 161.246 39.8545C161.188 39.9839 161.014 40.1722 160.855 40.2663C160.695 40.3487 160.318 40.4193 160.013 40.4193C159.607 40.4193 159.39 40.3369 159.114 40.0898C158.81 39.831 158.737 39.6545 158.752 39.1485ZM163.683 40.4193V39.1838V37.9484H164.553V40.4193H163.683ZM165.133 40.4193V39.1838C165.133 37.9837 165.147 37.9484 165.452 37.9484C165.64 37.9484 165.858 38.0072 165.945 38.0896C166.09 38.2072 166.134 38.2072 166.206 38.0896C166.25 38.019 166.525 37.9484 166.801 37.9484C167.163 37.9484 167.366 38.0189 167.526 38.2072C167.671 38.3955 167.743 38.772 167.743 39.4427C167.743 40.4075 167.743 40.4193 167.381 40.4193C167.033 40.4193 167.018 40.3958 166.975 39.5251C166.96 38.8779 166.888 38.5837 166.728 38.5014C166.612 38.4425 166.395 38.419 166.25 38.4543C166.047 38.5249 166.003 38.6896 166.003 40.4193H165.133ZM168.323 39.1838C168.338 38.6544 168.41 38.4661 168.672 38.2425C168.962 38.0072 169.15 37.9719 170.905 37.9719L170.919 39.3133C170.934 40.0545 170.876 40.7487 170.803 40.8546C170.745 40.9723 170.499 41.137 170.267 41.2194C170.02 41.3135 169.629 41.3606 169.339 41.3135C169.063 41.2782 168.759 41.1841 168.657 41.1018C168.57 41.0194 168.527 40.8782 168.585 40.7958C168.657 40.6664 168.759 40.6664 169.005 40.7605C169.194 40.8311 169.426 40.8899 169.542 40.8899C169.658 40.8899 169.861 40.8076 169.977 40.7135C170.107 40.6193 170.209 40.4428 170.209 40.3252C170.209 40.1722 170.18 40.1604 170.035 40.2663C169.933 40.3487 169.672 40.4193 169.455 40.4193C169.208 40.4193 168.904 40.3016 168.686 40.1251C168.381 39.878 168.323 39.7251 168.323 39.1838ZM176.648 38.7955C176.692 38.5838 176.909 38.3131 177.127 38.1837C177.344 38.0542 177.736 37.9484 178.026 37.9484C178.316 37.9484 178.693 38.0307 178.867 38.1249C179.055 38.219 179.273 38.5014 179.36 38.7367C179.476 39.0662 179.476 39.3015 179.36 39.6192C179.273 39.8663 179.055 40.1486 178.867 40.2428C178.693 40.3369 178.301 40.4193 177.997 40.4193C177.62 40.4193 177.359 40.3369 177.098 40.1251C176.895 39.9604 176.692 39.6898 176.648 39.5015C176.59 39.325 176.59 39.0073 176.648 38.7955ZM106.861 39.8898C106.832 39.7604 106.919 39.5957 107.064 39.5015C107.267 39.3956 108.746 39.3603 113.242 39.3603C116.897 39.3603 119.275 39.4074 119.449 39.478C119.609 39.5368 119.74 39.7015 119.74 39.831C119.74 39.9839 119.594 40.1134 119.333 40.1957C119.087 40.2663 117.115 40.3016 113.721 40.2899C110.849 40.2781 108.137 40.231 107.702 40.1957C107.064 40.1369 106.905 40.0781 106.861 39.8898ZM185.277 39.8427C185.277 39.7839 185.379 39.6427 185.509 39.5486C185.712 39.3839 186.495 39.3603 191.76 39.3603C195.472 39.3603 197.88 39.4074 198.054 39.478C198.213 39.5368 198.344 39.7015 198.344 39.831C198.344 39.9604 198.213 40.1251 198.054 40.184C197.88 40.2546 195.472 40.3016 191.745 40.3016C186.582 40.3016 185.698 40.2781 185.509 40.1251C185.393 40.031 185.292 39.9016 185.277 39.8427ZM180.433 40.4311C180.346 40.4311 180.201 40.3487 180.1 40.2428C179.969 40.1133 179.969 40.0193 180.085 39.8898C180.172 39.7957 180.317 39.7133 180.419 39.7133C180.506 39.7015 180.665 39.7839 180.752 39.8898C180.897 40.031 180.897 40.1016 180.752 40.2428C180.665 40.3487 180.506 40.4311 180.433 40.4311ZM164.727 22.4054V24.0527C167.831 24.0527 168.324 24.0056 168.744 23.8526C169.136 23.6997 169.353 23.4996 169.556 23.1114C169.76 22.7113 169.803 22.4642 169.716 22.1112C169.658 21.8524 169.469 21.5111 169.295 21.3464C169.121 21.1817 168.672 20.9816 168.309 20.9111C167.932 20.8287 166.975 20.7581 166.177 20.7581H164.727V22.4054ZM104.367 24.3233L103.439 26.7001C106.484 26.7471 107.384 26.7471 107.398 26.7236C107.413 26.7118 107.021 25.6293 106.499 24.3233C105.991 23.0055 105.513 21.9347 105.44 21.9347C105.368 21.9347 104.889 23.0055 104.367 24.3233ZM151.399 24.3468C151.892 23.1114 152.313 22.0759 152.356 22.0288C152.385 21.97 152.443 21.9347 152.487 21.9347C152.53 21.9347 152.98 23.0055 153.502 24.3233C154.01 25.6293 154.43 26.7354 154.43 26.7942C154.43 26.8413 153.546 26.8766 152.472 26.8766C151.008 26.8766 150.514 26.8413 150.514 26.7354C150.514 26.653 150.921 25.5823 151.399 24.3468ZM180.927 24.4409L179.969 26.8177C183.044 26.8648 183.958 26.8648 183.972 26.8413C183.987 26.8295 183.581 25.747 183.073 24.4409C182.551 23.1231 182.072 22.0524 182.014 22.0524C181.942 22.0524 181.463 23.1231 180.927 24.4409ZM164.698 27.8414C164.684 26.8766 164.742 26.0529 164.814 26.0059C164.887 25.9588 165.757 25.9353 166.757 25.9588C167.976 25.9823 168.715 26.0529 168.991 26.1706C169.223 26.2647 169.556 26.5001 169.716 26.6765C169.963 26.9354 170.021 27.1825 170.021 27.8179C170.021 28.5121 169.977 28.6651 169.658 28.9357C169.455 29.1122 169.121 29.324 168.889 29.4181C168.614 29.5358 167.947 29.5828 164.727 29.5828L164.698 27.8414ZM134.315 38.3958C134.213 38.6664 134.126 38.937 134.126 38.9959C134.126 39.0547 134.329 39.1135 134.562 39.1135C134.939 39.1135 134.982 39.0782 134.91 38.8547C134.852 38.7017 134.736 38.4311 134.649 38.2546L134.489 37.9251L134.315 38.3958ZM146.164 39.1724C146.149 38.9488 146.251 38.69 146.396 38.5841C146.526 38.4899 146.715 38.3958 146.831 38.3958C146.947 38.3958 147.135 38.5252 147.266 38.6664C147.382 38.8076 147.483 39.0312 147.483 39.1606C147.483 39.29 147.382 39.5254 147.266 39.6666C147.135 39.8078 146.947 39.9254 146.831 39.9254C146.7 39.9254 146.512 39.8548 146.396 39.7489C146.265 39.6548 146.164 39.3959 146.164 39.1724ZM169.31 38.5841C169.165 38.69 169.063 38.9488 169.078 39.1724C169.078 39.3959 169.179 39.6548 169.31 39.7489C169.426 39.8548 169.585 39.9254 169.673 39.9254C169.745 39.9254 169.905 39.9019 170.035 39.8666C170.18 39.8313 170.253 39.6313 170.253 39.1606C170.253 38.69 170.18 38.5017 170.035 38.4546L169.983 38.4449L169.934 38.4355C169.83 38.4157 169.727 38.3958 169.673 38.3958C169.6 38.3958 169.44 38.4899 169.31 38.5841ZM177.533 39.2077C177.504 38.9253 177.562 38.6311 177.663 38.5488C177.75 38.4664 177.925 38.3958 178.055 38.3958C178.186 38.3958 178.374 38.4546 178.476 38.5488C178.577 38.6311 178.65 38.9135 178.621 39.2077C178.592 39.5489 178.505 39.7725 178.331 39.8548C178.142 39.9489 178.012 39.9489 177.823 39.8548C177.649 39.7725 177.562 39.5489 177.533 39.2077ZM156.693 39.3724C156.519 39.4665 156.461 39.596 156.519 39.7254C156.577 39.8431 156.736 39.9254 156.867 39.9254C157.012 39.9254 157.215 39.8666 157.316 39.7842C157.403 39.7019 157.49 39.5489 157.49 39.4312C157.49 39.3136 157.374 39.2194 157.229 39.2194C157.084 39.2194 156.852 39.29 156.693 39.3724Z" fill="white"/>
</svg>
