<svg width="187" height="32" viewBox="0 0 187 32" fill="none" xmlns="http://www.w3.org/2000/svg">
<path fill-rule="evenodd" clip-rule="evenodd" d="M8.76603 0.831572C8.27704 1.32489 7.86393 1.80789 7.78868 1.97435C7.66352 2.25125 7.65826 2.69597 7.65678 13.1664C7.65552 21.8368 7.67321 24.0721 7.74298 24.0801C7.79128 24.0858 10.3341 24.0829 13.3938 24.0738C16.4535 24.0648 18.9569 24.0851 18.9569 24.119C18.9569 24.1529 18.6168 24.5288 18.2012 24.9544L17.4454 25.7281H11.7082H5.97094L5.95318 14.8665C5.93837 5.81302 5.91962 3.99951 5.84044 3.97241C5.71928 3.93088 0.285631 9.57008 0.140394 9.8844C0.0468212 10.0868 0.0023868 11.3799 0.00126365 20.9103L0 31.7477L0.150081 31.8738C0.290755 31.9921 0.733065 32 7.209 32C13.2681 32 14.15 31.9864 14.3788 31.8891C14.6941 31.755 16.426 30.0011 16.426 29.8174C16.426 29.6721 16.3854 29.7475 7.18141 29.7649L2.17989 29.7744V20.3067V10.8391L2.98715 10.0124L3.79442 9.18577V18.5743V27.9629H10.9573C17.8999 27.9629 18.1282 27.9587 18.3806 27.8237C18.5238 27.747 19.8525 26.4379 21.3332 24.9144C23.3008 22.8897 24.0184 22.1077 23.9996 22.0078C23.9748 21.875 23.7789 21.8708 16.903 21.8529L9.83176 21.8345L9.814 10.9373C9.79954 2.05293 9.75735 0.152191 9.75735 0.0080106C9.75735 -0.0640807 9.23193 0.361687 8.76603 0.831572Z" fill="url(#paint0_linear_171_17)"/>
<path d="M33.55 23V8.68H35.74V20.94H41.94V23H33.55ZM47.233 23.33C46.0263 23.33 45.093 22.98 44.433 22.28C43.773 21.5733 43.443 20.5767 43.443 19.29V12.77H45.613V18.95C45.613 19.79 45.803 20.43 46.183 20.87C46.5696 21.31 47.1196 21.53 47.833 21.53C48.5863 21.53 49.2196 21.2433 49.733 20.67C50.2463 20.09 50.503 19.3967 50.503 18.59V12.77H52.673V23H50.613V20.57L51.603 21.56H50.553C50.2596 22.0733 49.8096 22.4967 49.203 22.83C48.5963 23.1633 47.9396 23.33 47.233 23.33ZM55.1541 23V12.77H57.2341V14.52L57.0241 14.27H57.2941C57.5874 13.7367 58.0307 13.3 58.6241 12.96C59.2241 12.6133 59.8574 12.44 60.5241 12.44C61.2507 12.44 61.8907 12.6133 62.4441 12.96C63.0041 13.3067 63.4107 13.7833 63.6641 14.39C64.0507 13.75 64.5474 13.2667 65.1541 12.94C65.7607 12.6067 66.4341 12.44 67.1741 12.44C68.3474 12.44 69.2407 12.79 69.8541 13.49C70.4674 14.19 70.7741 15.1733 70.7741 16.44V23H68.6241V16.81C68.6241 15.9633 68.4507 15.3367 68.1041 14.93C67.7574 14.5233 67.2274 14.32 66.5141 14.32C65.8141 14.32 65.2274 14.6033 64.7541 15.17C64.2874 15.7367 64.0541 16.43 64.0541 17.25V23H61.8841V16.82C61.8841 15.98 61.7107 15.3533 61.3641 14.94C61.0174 14.5267 60.4907 14.32 59.7841 14.32C59.0907 14.32 58.5074 14.61 58.0341 15.19C57.5607 15.7633 57.3241 16.46 57.3241 17.28V23H55.1541ZM73.2919 23V12.77H75.4619V23H73.2919ZM74.3819 10.83C74.0085 10.83 73.6885 10.7 73.4219 10.44C73.1619 10.1733 73.0319 9.85333 73.0319 9.48C73.0319 9.1 73.1619 8.78333 73.4219 8.53C73.6885 8.27667 74.0085 8.15 74.3819 8.15C74.7685 8.15 75.0852 8.27667 75.3319 8.53C75.5852 8.78333 75.7119 9.1 75.7119 9.48C75.7119 9.85333 75.5852 10.1733 75.3319 10.44C75.0852 10.7 74.7685 10.83 74.3819 10.83ZM78.0642 23V12.77H80.1442V14.6L79.8542 14.27H80.2042C80.5109 13.73 80.9742 13.29 81.5942 12.95C82.2209 12.61 82.8709 12.44 83.5442 12.44C84.7242 12.44 85.6442 12.79 86.3042 13.49C86.9642 14.19 87.2942 15.15 87.2942 16.37V23H85.1242V16.79C85.1242 15.9767 84.9276 15.3633 84.5342 14.95C84.1476 14.53 83.5742 14.32 82.8142 14.32C82.0809 14.32 81.4676 14.6067 80.9742 15.18C80.4809 15.7533 80.2342 16.44 80.2342 17.24V23H78.0642ZM94.4853 23.33C92.932 23.33 91.6486 22.8133 90.6353 21.78C89.622 20.74 89.1153 19.44 89.1153 17.88C89.1153 16.2933 89.622 14.99 90.6353 13.97C91.6553 12.95 92.9386 12.44 94.4853 12.44C96.032 12.44 97.3153 12.9533 98.3353 13.98C99.3553 15.0067 99.8653 16.3067 99.8653 17.88C99.8653 19.44 99.3586 20.74 98.3453 21.78C97.332 22.8133 96.0453 23.33 94.4853 23.33ZM94.4853 21.43C95.3986 21.43 96.1653 21.1 96.7853 20.44C97.4053 19.7733 97.7153 18.92 97.7153 17.88C97.7153 16.82 97.402 15.9667 96.7753 15.32C96.1553 14.6667 95.392 14.34 94.4853 14.34C93.572 14.34 92.802 14.6667 92.1753 15.32C91.5553 15.9733 91.2453 16.8267 91.2453 17.88C91.2453 18.92 91.552 19.7733 92.1653 20.44C92.7853 21.1 93.5586 21.43 94.4853 21.43ZM105.456 23.33C104.249 23.33 103.316 22.98 102.656 22.28C101.996 21.5733 101.666 20.5767 101.666 19.29V12.77H103.836V18.95C103.836 19.79 104.026 20.43 104.406 20.87C104.792 21.31 105.342 21.53 106.056 21.53C106.809 21.53 107.442 21.2433 107.956 20.67C108.469 20.09 108.726 19.3967 108.726 18.59V12.77H110.896V23H108.836V20.57L109.826 21.56H108.776C108.482 22.0733 108.032 22.4967 107.426 22.83C106.819 23.1633 106.162 23.33 105.456 23.33ZM117.077 23.33C116.403 23.33 115.807 23.25 115.287 23.09C114.773 22.93 114.31 22.69 113.897 22.37C113.49 22.05 113.17 21.7 112.937 21.32C112.71 20.9333 112.597 20.74 112.597 20.74L114.217 19.77C114.217 19.77 114.31 19.91 114.497 20.19C114.683 20.47 114.907 20.7167 115.167 20.93C115.433 21.1367 115.727 21.2933 116.047 21.4C116.367 21.5067 116.753 21.56 117.207 21.56C117.813 21.56 118.297 21.4467 118.657 21.22C119.017 20.9867 119.197 20.6467 119.197 20.2C119.197 19.84 119.047 19.5533 118.747 19.34C118.447 19.1267 117.787 18.9033 116.767 18.67C115.433 18.37 114.47 17.96 113.877 17.44C113.29 16.92 112.997 16.2533 112.997 15.44C112.997 14.56 113.38 13.84 114.147 13.28C114.92 12.72 115.87 12.44 116.997 12.44C117.59 12.44 118.12 12.5067 118.587 12.64C119.06 12.7667 119.487 12.9633 119.867 13.23C120.253 13.4967 120.55 13.78 120.757 14.08C120.963 14.3733 121.067 14.52 121.067 14.52L119.487 15.49C119.487 15.49 119.407 15.39 119.247 15.19C119.093 14.9833 118.9 14.8033 118.667 14.65C118.44 14.4967 118.183 14.3867 117.897 14.32C117.61 14.2467 117.3 14.21 116.967 14.21C116.413 14.21 115.963 14.3267 115.617 14.56C115.27 14.7933 115.097 15.0633 115.097 15.37C115.097 15.7033 115.233 15.9867 115.507 16.22C115.78 16.4467 116.47 16.6867 117.577 16.94C118.937 17.2467 119.897 17.6633 120.457 18.19C121.023 18.71 121.307 19.34 121.307 20.08C121.307 21.0533 120.913 21.84 120.127 22.44C119.34 23.0333 118.323 23.33 117.077 23.33ZM127.866 23V8.68H130.056V20.94H136.256V23H127.866ZM142.708 23.33C141.155 23.33 139.871 22.8133 138.858 21.78C137.845 20.74 137.338 19.44 137.338 17.88C137.338 16.2933 137.845 14.99 138.858 13.97C139.878 12.95 141.161 12.44 142.708 12.44C144.255 12.44 145.538 12.9533 146.558 13.98C147.578 15.0067 148.088 16.3067 148.088 17.88C148.088 19.44 147.581 20.74 146.568 21.78C145.555 22.8133 144.268 23.33 142.708 23.33ZM142.708 21.43C143.621 21.43 144.388 21.1 145.008 20.44C145.628 19.7733 145.938 18.92 145.938 17.88C145.938 16.82 145.625 15.9667 144.998 15.32C144.378 14.6667 143.615 14.34 142.708 14.34C141.795 14.34 141.025 14.6667 140.398 15.32C139.778 15.9733 139.468 16.8267 139.468 17.88C139.468 18.92 139.775 19.7733 140.388 20.44C141.008 21.1 141.781 21.43 142.708 21.43ZM154.558 27.64C153.892 27.64 153.278 27.5533 152.718 27.38C152.165 27.2067 151.665 26.9467 151.218 26.6C150.778 26.26 150.435 25.8833 150.188 25.47C149.948 25.0633 149.828 24.86 149.828 24.86L151.618 23.94C151.618 23.94 151.712 24.09 151.898 24.39C152.085 24.69 152.312 24.95 152.578 25.17C152.845 25.39 153.145 25.5533 153.478 25.66C153.818 25.7733 154.172 25.83 154.538 25.83C155.538 25.83 156.298 25.5433 156.818 24.97C157.345 24.4033 157.608 23.6033 157.608 22.57V21.47H157.538C157.185 21.9967 156.715 22.41 156.128 22.71C155.548 23.0033 154.895 23.15 154.168 23.15C152.802 23.15 151.665 22.6633 150.758 21.69C149.858 20.7167 149.408 19.4133 149.408 17.78C149.408 16.18 149.868 14.89 150.788 13.91C151.708 12.93 152.852 12.44 154.218 12.44C154.932 12.44 155.588 12.59 156.188 12.89C156.795 13.19 157.268 13.6033 157.608 14.13H158.178L157.678 14.71V12.77H159.748V22.52C159.748 24.1533 159.285 25.4133 158.358 26.3C157.438 27.1933 156.172 27.64 154.558 27.64ZM154.608 21.27C155.495 21.27 156.225 20.95 156.798 20.31C157.378 19.6633 157.668 18.8067 157.668 17.74C157.668 16.7 157.378 15.87 156.798 15.25C156.225 14.6233 155.495 14.31 154.608 14.31C153.728 14.31 152.995 14.62 152.408 15.24C151.828 15.86 151.538 16.7033 151.538 17.77C151.538 18.8833 151.825 19.7467 152.398 20.36C152.978 20.9667 153.715 21.27 154.608 21.27ZM162.354 23V12.77H164.524V23H162.354ZM163.444 10.83C163.071 10.83 162.751 10.7 162.484 10.44C162.224 10.1733 162.094 9.85333 162.094 9.48C162.094 9.1 162.224 8.78333 162.484 8.53C162.751 8.27667 163.071 8.15 163.444 8.15C163.831 8.15 164.148 8.27667 164.394 8.53C164.648 8.78333 164.774 9.1 164.774 9.48C164.774 9.85333 164.648 10.1733 164.394 10.44C164.148 10.7 163.831 10.83 163.444 10.83ZM171.827 23.33C170.293 23.33 169.03 22.8167 168.037 21.79C167.05 20.7567 166.557 19.4433 166.557 17.85C166.557 16.2567 167.053 14.9567 168.047 13.95C169.047 12.9433 170.307 12.44 171.827 12.44C172.48 12.44 173.083 12.5333 173.637 12.72C174.197 12.9067 174.707 13.2067 175.167 13.62C175.633 14.0267 176.037 14.6133 176.377 15.38L174.517 16.13C174.277 15.6567 174.03 15.2967 173.777 15.05C173.53 14.8033 173.237 14.6233 172.897 14.51C172.563 14.3967 172.2 14.34 171.807 14.34C170.947 14.34 170.21 14.6633 169.597 15.31C168.983 15.95 168.677 16.7967 168.677 17.85C168.677 18.8967 168.98 19.7567 169.587 20.43C170.193 21.0967 170.93 21.43 171.797 21.43C172.197 21.43 172.57 21.37 172.917 21.25C173.263 21.1233 173.557 20.95 173.797 20.73C174.037 20.51 174.307 20.1367 174.607 19.61L176.447 20.36C176.06 21.1533 175.647 21.7467 175.207 22.14C174.767 22.5267 174.26 22.82 173.687 23.02C173.12 23.2267 172.5 23.33 171.827 23.33ZM181.862 23.33C181.189 23.33 180.592 23.25 180.072 23.09C179.559 22.93 179.095 22.69 178.682 22.37C178.275 22.05 177.955 21.7 177.722 21.32C177.495 20.9333 177.382 20.74 177.382 20.74L179.002 19.77C179.002 19.77 179.095 19.91 179.282 20.19C179.469 20.47 179.692 20.7167 179.952 20.93C180.219 21.1367 180.512 21.2933 180.832 21.4C181.152 21.5067 181.539 21.56 181.992 21.56C182.599 21.56 183.082 21.4467 183.442 21.22C183.802 20.9867 183.982 20.6467 183.982 20.2C183.982 19.84 183.832 19.5533 183.532 19.34C183.232 19.1267 182.572 18.9033 181.552 18.67C180.219 18.37 179.255 17.96 178.662 17.44C178.075 16.92 177.782 16.2533 177.782 15.44C177.782 14.56 178.165 13.84 178.932 13.28C179.705 12.72 180.655 12.44 181.782 12.44C182.375 12.44 182.905 12.5067 183.372 12.64C183.845 12.7667 184.272 12.9633 184.652 13.23C185.039 13.4967 185.335 13.78 185.542 14.08C185.749 14.3733 185.852 14.52 185.852 14.52L184.272 15.49C184.272 15.49 184.192 15.39 184.032 15.19C183.879 14.9833 183.685 14.8033 183.452 14.65C183.225 14.4967 182.969 14.3867 182.682 14.32C182.395 14.2467 182.085 14.21 181.752 14.21C181.199 14.21 180.749 14.3267 180.402 14.56C180.055 14.7933 179.882 15.0633 179.882 15.37C179.882 15.7033 180.019 15.9867 180.292 16.22C180.565 16.4467 181.255 16.6867 182.362 16.94C183.722 17.2467 184.682 17.6633 185.242 18.19C185.809 18.71 186.092 19.34 186.092 20.08C186.092 21.0533 185.699 21.84 184.912 22.44C184.125 23.0333 183.109 23.33 181.862 23.33Z" fill="url(#paint1_linear_171_17)"/>
<defs>
<linearGradient id="paint0_linear_171_17" x1="9.44147" y1="2.25508e-07" x2="0.698423" y2="32.8322" gradientUnits="userSpaceOnUse">
<stop stop-color="#E12A5E"/>
<stop offset="0.608206" stop-color="#CD2465"/>
<stop offset="1" stop-color="#A91A71"/>
</linearGradient>
<linearGradient id="paint1_linear_171_17" x1="92.9761" y1="9" x2="92.6987" y2="24.3777" gradientUnits="userSpaceOnUse">
<stop stop-color="#E12A5E"/>
<stop offset="0.608206" stop-color="#CD2465"/>
<stop offset="1" stop-color="#A91A71"/>
</linearGradient>
</defs>
</svg>
